<?xml version="1.0" encoding="iso-8859-1"?>
<!-- Uploaded to: SVG Repo, www.svgrepo.com, Generator: SVG Repo Mixer Tools -->
<!DOCTYPE svg PUBLIC "-//W3C//DTD SVG 1.1//EN" "http://www.w3.org/Graphics/SVG/1.1/DTD/svg11.dtd">
<svg fill="#abacb5" version="1.1" id="Capa_1" xmlns="http://www.w3.org/2000/svg" xmlns:xlink="http://www.w3.org/1999/xlink" 
	 width="800px" height="800px" viewBox="0 0 85.719 85.719"
	 xml:space="preserve">
<g>
	<g>
		<path d="M33.251,13.117c-0.552,0-1,0.447-1,1v25.284c0,0.553,0.448,1,1,1c0.552,0,1-0.447,1-1V14.117
			C34.251,13.565,33.802,13.117,33.251,13.117z"/>
		<path d="M84.859,58.174L70.191,11.787l-0.002-0.001c-1.404-6.488-7.797-10.654-14.312-9.309c-5.097,1.058-8.94,5.237-9.572,10.399
			c-0.034,0.275,0.048,0.537,0.207,0.739c-0.184,0.181-0.293,0.431-0.293,0.708v3.572h-6.721v-3.777
			c0-0.277-0.112-0.527-0.294-0.708c0.159-0.202,0.24-0.464,0.207-0.739c-0.631-5.162-4.479-9.341-9.575-10.399
			c-6.511-1.347-12.906,2.821-14.309,9.309c0,0,0,0.001-0.001,0.001L0.859,57.969c-0.003,0.015,0,0.024-0.003,0.037
			C0.302,59.822,0,61.748,0,63.742c0,10.893,8.86,19.75,19.75,19.75c10.89,0,19.75-8.857,19.75-19.75v-17.75h6.719v17.957
			c0,10.894,8.861,19.75,19.75,19.75c10.893,0,19.75-8.856,19.75-19.75c0-1.995-0.303-3.92-0.854-5.735
			C84.859,58.199,84.863,58.187,84.859,58.174z M19.751,81.493c-9.788,0-17.75-7.963-17.75-17.75c0-1.834,0.28-3.604,0.799-5.27
			l0.002-0.007C5.054,51.245,11.8,45.99,19.751,45.99c9.788,0,17.75,7.965,17.75,17.75C37.501,73.528,29.538,81.493,19.751,81.493z
			 M19.751,43.993c-5.645,0-10.731,2.396-14.334,6.204l12.021-38.012c0.006-0.018,0.001-0.035,0.006-0.053
			c0.004-0.017,0.016-0.029,0.02-0.046C18.599,6.62,23.97,3.093,29.436,4.23c4.255,0.883,7.469,4.372,7.995,8.683
			c0.029,0.236,0.144,0.438,0.303,0.591c-0.137,0.171-0.229,0.378-0.229,0.613v4.386c-0.051,0.12-0.08,0.252-0.08,0.391
			c0,0.139,0.029,0.271,0.08,0.391V55.14C34.295,48.553,27.553,43.993,19.751,43.993z M39.501,43.993V19.895h6.72v24.099H39.501
			L39.501,43.993z M48.218,14.322c0-0.236-0.094-0.443-0.229-0.613c0.158-0.154,0.271-0.354,0.303-0.591
			c0.525-4.311,3.74-7.8,7.996-8.683c5.463-1.138,10.836,2.39,11.971,7.856c0.004,0.017,0.018,0.03,0.021,0.046
			c0.004,0.018,0,0.035,0.006,0.052l12.02,38.012c-3.604-3.812-8.688-6.204-14.334-6.204c-7.803,0-14.543,4.562-17.75,11.146V14.323
			L48.218,14.322L48.218,14.322z M65.968,81.698c-9.787,0-17.75-7.963-17.75-17.75s7.963-17.75,17.75-17.75
			c7.951,0,14.697,5.255,16.949,12.477l0.002,0.006c0.521,1.666,0.799,3.437,0.799,5.271C83.718,73.735,75.755,81.698,65.968,81.698
			z"/>
		<path d="M71.533,39.187c0.119,0.447,0.522,0.743,0.967,0.743c0.086,0,0.172-0.011,0.258-0.033
			c0.533-0.142,0.854-0.689,0.709-1.224l-6.529-24.607c-0.143-0.533-0.688-0.849-1.225-0.71c-0.533,0.142-0.852,0.689-0.709,1.224
			L71.533,39.187z"/>
	</g>
</g>
</svg>