<svg width="60" height="61" viewBox="0 0 60 61" fill="none" xmlns="http://www.w3.org/2000/svg">
<path d="M38.0628 42.5815C38.0628 42.5815 37.0997 41.3991 36.297 40.3544C38.2363 39.8851 39.9517 38.7263 41.1397 37.0827C40.1771 37.7411 39.1448 38.2853 38.0628 38.7046C36.8182 39.2506 35.5165 39.6474 34.1834 39.8869C31.892 40.3205 29.542 40.3112 27.2538 39.8595C25.9106 39.5893 24.5941 39.1936 23.3208 38.6774C22.6497 38.4121 21.997 38.0998 21.3675 37.7426C21.2874 37.6875 21.2071 37.66 21.1268 37.605C21.0866 37.5844 21.0503 37.5565 21.0198 37.5227C20.5383 37.2477 20.2707 37.0553 20.2707 37.0553C21.4157 38.6644 23.0718 39.8118 24.9528 40.2993C24.1503 41.3443 23.1603 42.5813 23.1603 42.5813C21.571 42.6252 19.9955 42.2671 18.5726 41.5384C17.1496 40.8097 15.9228 39.7328 15 38.4024C15.0869 32.8288 16.4042 27.3481 18.8527 22.3738C21.0074 20.6349 23.6344 19.6262 26.3708 19.4871L26.6384 19.8171C24.0638 20.4717 21.6613 21.7013 19.6018 23.4186C19.6018 23.4186 20.1904 23.0888 21.1802 22.6214C23.1035 21.7192 25.1532 21.1347 27.2538 20.8893C27.4036 20.8573 27.5558 20.8389 27.7087 20.8342C29.5017 20.5942 31.3161 20.5758 33.1133 20.7793C35.9395 21.111 38.6752 22.0076 41.1664 23.4186C39.2113 21.7833 36.9406 20.5932 34.5044 19.9271L34.879 19.4872C37.6155 19.6263 40.2425 20.6349 42.3971 22.374C44.8457 27.3482 46.1631 32.8288 46.25 38.4024C45.3198 39.7315 44.0876 40.807 42.6608 41.5352C41.2339 42.2635 39.6555 42.6226 38.0628 42.5813V42.5815ZM25.6217 29.7421C24.8954 29.7421 24.1988 30.0386 23.6852 30.5664C23.1716 31.0942 22.8831 31.81 22.8831 32.5563C22.8831 33.3027 23.1717 34.0185 23.6853 34.5462C24.1989 35.074 24.8955 35.3705 25.6218 35.3705C26.3481 35.3705 27.0447 35.074 27.5583 34.5462C28.0719 34.0185 28.3604 33.3027 28.3605 32.5563C28.3605 31.81 28.0719 31.0942 27.5584 30.5664C27.0448 30.0386 26.3482 29.7421 25.6219 29.7421H25.6217ZM35.3874 29.7421C34.7894 29.69 34.1899 29.8247 33.6676 30.1285C33.1453 30.4323 32.7244 30.8912 32.46 31.4449C32.1957 31.9986 32.1002 32.6214 32.186 33.2318C32.2719 33.8423 32.5351 34.4118 32.9412 34.866C33.3473 35.3201 33.8774 35.6377 34.4621 35.7771C35.0467 35.9165 35.6587 35.8713 36.218 35.6474C36.7772 35.4234 37.2577 35.0312 37.5963 34.522C37.935 34.0128 38.1162 33.4104 38.1162 32.7937C38.1322 32.4092 38.0743 32.0252 37.9458 31.6636C37.8173 31.3021 37.6207 30.9702 37.3673 30.6868C37.1139 30.4033 36.8086 30.174 36.4688 30.012C36.1291 29.8499 35.7617 29.7581 35.3874 29.7421" fill="#6BC909"/>
<path d="M12 1.73706H48V-0.262939H12V1.73706ZM59 12.7371V48.7371H61V12.7371H59ZM48 59.7371H12V61.7371H48V59.7371ZM1 48.7371V12.7371H-1V48.7371H1ZM12 59.7371C5.92487 59.7371 1 54.8122 1 48.7371H-1C-1 55.9168 4.8203 61.7371 12 61.7371V59.7371ZM59 48.7371C59 54.8122 54.0751 59.7371 48 59.7371V61.7371C55.1797 61.7371 61 55.9168 61 48.7371H59ZM48 1.73706C54.0751 1.73706 59 6.66193 59 12.7371H61C61 5.55736 55.1797 -0.262939 48 -0.262939V1.73706ZM12 -0.262939C4.8203 -0.262939 -1 5.55736 -1 12.7371H1C1 6.66193 5.92487 1.73706 12 1.73706V-0.262939Z" fill="#6BC909"/>
</svg>
