<svg
    xmlns="http://www.w3.org/2000/svg"
    data-name="Layer 1"
    viewBox="0 0 100 125"
    x="0px"
    y="0px"
    fill="#fff"
>
    <path d="M50.05,0A50,50,0,1,1,0,49.87,50,50,0,0,1,50.05,0ZM46.23,38v0c-3,0-5.95,0-8.92,0a7.45,7.45,0,0,0-1.92.27,1.86,1.86,0,0,0-1.46,1.55,1.78,1.78,0,0,0,1,2.06,9.08,9.08,0,0,0,3.05.82c2.78,0.13,3.9,1.35,3.48,4.21-0.78,5.35-1.83,10.66-2.73,16-0.61,3.6-1.12,7.21-1.71,10.81-0.79,4.85,3.73,9.4,7.32,10a42.66,42.66,0,0,0,6.42.41,16.71,16.71,0,0,0,12.15-5.26,4.62,4.62,0,0,0,1.25-1.93,2.37,2.37,0,0,0-.42-1.84,1.81,1.81,0,0,0-1.57-.17c-0.82.27-1.55,0.83-2.35,1.18a14.5,14.5,0,0,1-2.92,1,2.85,2.85,0,0,1-3.52-2.54,9.63,9.63,0,0,1-.09-2.82c0.34-2.32.82-4.62,1.24-6.92Q56.24,55.42,58,46c0.32-1.72.86-3.41,0.5-5.22A3,3,0,0,0,55.24,38C52.24,38,49.23,38,46.23,38Zm5.44-22.24a9.08,9.08,0,1,0,8.68,9.27A9,9,0,0,0,51.67,15.78Z" />
</svg>