<svg width="60" height="61" viewBox="0 0 60 61" fill="none" xmlns="http://www.w3.org/2000/svg">
<path d="M38.3438 20.5183C37.9729 20.5183 37.6104 20.6283 37.3021 20.8343C36.9937 21.0403 36.7534 21.3332 36.6115 21.6758C36.4696 22.0184 36.4324 22.3954 36.5048 22.7591C36.5771 23.1228 36.7557 23.4569 37.0179 23.7191C37.2801 23.9814 37.6142 24.1599 37.978 24.2323C38.3417 24.3046 38.7187 24.2675 39.0613 24.1256C39.4039 23.9837 39.6967 23.7433 39.9028 23.435C40.1088 23.1267 40.2188 22.7642 40.2188 22.3933C40.2188 21.896 40.0212 21.4191 39.6696 21.0675C39.3179 20.7159 38.841 20.5183 38.3438 20.5183V20.5183ZM45.5313 24.2996C45.5009 23.0032 45.2581 21.7205 44.8125 20.5027C44.4152 19.4607 43.7969 18.5172 43 17.7371C42.2263 16.9362 41.2806 16.3217 40.2344 15.9402C39.0198 15.4811 37.7357 15.2327 36.4375 15.2058C34.7813 15.1121 34.25 15.1121 30 15.1121C25.75 15.1121 25.2188 15.1121 23.5625 15.2058C22.2643 15.2327 20.9802 15.4811 19.7656 15.9402C18.7214 16.3256 17.7765 16.9395 17 17.7371C16.1991 18.5108 15.5847 19.4565 15.2031 20.5027C14.744 21.7173 14.4956 23.0014 14.4687 24.2996C14.375 25.9558 14.375 26.4871 14.375 30.7371C14.375 34.9871 14.375 35.5183 14.4687 37.1746C14.4956 38.4728 14.744 39.7568 15.2031 40.9714C15.5847 42.0176 16.1991 42.9633 17 43.7371C17.7765 44.5346 18.7214 45.1485 19.7656 45.5339C20.9802 45.9931 22.2643 46.2414 23.5625 46.2683C25.2188 46.3621 25.75 46.3621 30 46.3621C34.25 46.3621 34.7813 46.3621 36.4375 46.2683C37.7357 46.2414 39.0198 45.9931 40.2344 45.5339C41.2806 45.1524 42.2263 44.538 43 43.7371C43.8004 42.9598 44.4193 42.0155 44.8125 40.9714C45.2581 39.7536 45.5009 38.471 45.5313 37.1746C45.5313 35.5183 45.625 34.9871 45.625 30.7371C45.625 26.4871 45.625 25.9558 45.5313 24.2996V24.2996ZM42.7187 36.9871C42.7074 37.9789 42.5277 38.9616 42.1875 39.8933C41.938 40.5733 41.5373 41.1877 41.0156 41.6902C40.5088 42.2066 39.8957 42.6065 39.2187 42.8621C38.287 43.2023 37.3043 43.3819 36.3125 43.3933C34.75 43.4714 34.1719 43.4871 30.0625 43.4871C25.9531 43.4871 25.375 43.4871 23.8125 43.3933C22.7826 43.4126 21.7572 43.254 20.7812 42.9246C20.134 42.6559 19.549 42.257 19.0625 41.7527C18.5439 41.2507 18.1482 40.6358 17.9063 39.9558C17.5248 39.0107 17.3132 38.0057 17.2812 36.9871C17.2812 35.4246 17.1875 34.8464 17.1875 30.7371C17.1875 26.6277 17.1875 26.0496 17.2812 24.4871C17.2883 23.4731 17.4734 22.4682 17.8281 21.5183C18.1032 20.8588 18.5254 20.2709 19.0625 19.7996C19.5372 19.2623 20.1239 18.8356 20.7812 18.5496C21.7337 18.2059 22.7375 18.0262 23.75 18.0183C25.3125 18.0183 25.8906 17.9246 30 17.9246C34.1094 17.9246 34.6875 17.9246 36.25 18.0183C37.2418 18.0297 38.2245 18.2093 39.1563 18.5496C39.8663 18.8131 40.5036 19.2415 41.0156 19.7996C41.5277 20.2795 41.9278 20.8663 42.1875 21.5183C42.5348 22.4698 42.7145 23.4742 42.7187 24.4871C42.7969 26.0496 42.8125 26.6277 42.8125 30.7371C42.8125 34.8464 42.7969 35.4246 42.7187 36.9871ZM30 22.7214C28.4153 22.7245 26.8671 23.1973 25.551 24.0799C24.2349 24.9625 23.21 26.2155 22.6057 27.6804C22.0014 29.1454 21.8449 30.7565 22.1559 32.3104C22.467 33.8642 23.2316 35.291 24.3532 36.4105C25.4749 37.5299 26.9031 38.2918 28.4576 38.5998C30.012 38.9078 31.6229 38.7482 33.0867 38.141C34.5504 37.5339 35.8014 36.5065 36.6815 35.1887C37.5615 33.8709 38.0312 32.3217 38.0312 30.7371C38.0333 29.6825 37.8269 28.638 37.4238 27.6636C37.0207 26.6891 36.429 25.804 35.6826 25.059C34.9362 24.3141 34.0499 23.7241 33.0747 23.3229C32.0994 22.9217 31.0545 22.7173 30 22.7214V22.7214ZM30 35.9402C28.9709 35.9402 27.9649 35.635 27.1093 35.0633C26.2536 34.4916 25.5868 33.679 25.1929 32.7282C24.7991 31.7775 24.6961 30.7313 24.8969 29.722C25.0976 28.7127 25.5932 27.7856 26.3208 27.0579C27.0485 26.3302 27.9756 25.8347 28.9849 25.6339C29.9942 25.4331 31.0404 25.5362 31.9911 25.93C32.9419 26.3238 33.7545 26.9907 34.3262 27.8464C34.898 28.702 35.2031 29.708 35.2031 30.7371C35.2031 31.4203 35.0685 32.0969 34.8071 32.7282C34.5456 33.3595 34.1623 33.9331 33.6792 34.4162C33.196 34.8994 32.6224 35.2826 31.9911 35.5441C31.3599 35.8056 30.6833 35.9402 30 35.9402V35.9402Z" fill="#6BC909"/>
<path d="M12 1.73706H48V-0.262939H12V1.73706ZM59 12.7371V48.7371H61V12.7371H59ZM48 59.7371H12V61.7371H48V59.7371ZM1 48.7371V12.7371H-1V48.7371H1ZM12 59.7371C5.92487 59.7371 1 54.8122 1 48.7371H-1C-1 55.9168 4.8203 61.7371 12 61.7371V59.7371ZM59 48.7371C59 54.8122 54.0751 59.7371 48 59.7371V61.7371C55.1797 61.7371 61 55.9168 61 48.7371H59ZM48 1.73706C54.0751 1.73706 59 6.66193 59 12.7371H61C61 5.55736 55.1797 -0.262939 48 -0.262939V1.73706ZM12 -0.262939C4.8203 -0.262939 -1 5.55736 -1 12.7371H1C1 6.66193 5.92487 1.73706 12 1.73706V-0.262939Z" fill="#6BC909"/>
</svg>
