<svg xmlns="http://www.w3.org/2000/svg" xmlns:xlink="http://www.w3.org/1999/xlink" version="1.1" width="256" height="256" viewBox="0 0 256 256" xml:space="preserve">

<defs>
</defs>
<g style="stroke: none; stroke-width: 0; stroke-dasharray: none; stroke-linecap: butt; stroke-linejoin: miter; stroke-miterlimit: 10; fill: none; fill-rule: nonzero; opacity: 1;" transform="translate(1.4065934065934016 1.4065934065934016) scale(2.81 2.81)" >
	<path d="M 47.533 28.334 c -0.943 0 -1.783 -0.67 -1.964 -1.631 L 42.288 9.23 l -19.827 3.723 l 2.443 13.011 c 0.204 1.085 -0.511 2.131 -1.597 2.335 c -1.089 0.204 -2.131 -0.511 -2.335 -1.597 L 18.16 11.726 c -0.204 -1.085 0.511 -2.131 1.597 -2.335 L 43.515 4.93 c 1.087 -0.204 2.131 0.511 2.335 1.597 l 3.65 19.438 c 0.204 1.085 -0.511 2.131 -1.597 2.335 C 47.779 28.323 47.655 28.334 47.533 28.334 z" style="stroke: none; stroke-width: 1; stroke-dasharray: none; stroke-linecap: butt; stroke-linejoin: miter; stroke-miterlimit: 10; fill: rgb(171,172,181); fill-rule: nonzero; opacity: 1;" transform=" matrix(1 0 0 1 0 0) " stroke-linecap="round" />
	<path d="M 65.536 28.334 c -0.135 0 -0.272 -0.014 -0.41 -0.042 c -1.081 -0.225 -1.775 -1.284 -1.55 -2.366 l 2.553 -12.26 l -9.1 -1.896 l -3.118 14.971 c -0.226 1.081 -1.284 1.775 -2.366 1.55 c -1.081 -0.225 -1.775 -1.285 -1.55 -2.366 l 3.526 -16.929 c 0.225 -1.081 1.277 -1.781 2.366 -1.55 l 13.016 2.711 c 1.081 0.225 1.775 1.285 1.55 2.366 l -2.961 14.218 C 67.296 27.686 66.464 28.334 65.536 28.334 z" style="stroke: none; stroke-width: 1; stroke-dasharray: none; stroke-linecap: butt; stroke-linejoin: miter; stroke-miterlimit: 10; fill: rgb(171,172,181); fill-rule: nonzero; opacity: 1;" transform=" matrix(1 0 0 1 0 0) " stroke-linecap="round" />
	<path d="M 58.219 11.976 c -1.104 0 -2 -0.896 -2 -2 V 4 H 39.955 v 4.009 c 0 1.104 -0.896 2 -2 2 s -2 -0.896 -2 -2 V 2 c 0 -1.104 0.896 -2 2 -2 h 20.264 c 1.104 0 2 0.896 2 2 v 7.976 C 60.219 11.08 59.323 11.976 58.219 11.976 z" style="stroke: none; stroke-width: 1; stroke-dasharray: none; stroke-linecap: butt; stroke-linejoin: miter; stroke-miterlimit: 10; fill: rgb(171,172,181); fill-rule: nonzero; opacity: 1;" transform=" matrix(1 0 0 1 0 0) " stroke-linecap="round" />
	<path d="M 79.434 90 H 10.565 c -0.556 0 -1.086 -0.231 -1.464 -0.638 c -0.378 -0.407 -0.57 -0.952 -0.53 -1.507 L 13.03 26.19 c 0.076 -1.046 0.946 -1.856 1.995 -1.856 h 59.951 c 1.049 0 1.919 0.81 1.995 1.856 l 4.459 61.666 c 0.04 0.555 -0.152 1.1 -0.531 1.507 C 80.52 89.769 79.99 90 79.434 90 z M 12.715 86 h 64.57 l -4.17 -57.666 h -56.23 L 12.715 86 z" style="stroke: none; stroke-width: 1; stroke-dasharray: none; stroke-linecap: butt; stroke-linejoin: miter; stroke-miterlimit: 10; fill: rgb(171,172,181); fill-rule: nonzero; opacity: 1;" transform=" matrix(1 0 0 1 0 0) " stroke-linecap="round" />
	<path d="M 45 72.153 c -8.919 0 -16.176 -7.257 -16.176 -16.177 V 41.801 c 0 -1.104 0.896 -2 2 -2 s 2 0.896 2 2 v 14.176 c 0 6.714 5.462 12.177 12.176 12.177 s 12.176 -5.463 12.176 -12.177 V 41.801 c 0 -1.104 0.896 -2 2 -2 s 2 0.896 2 2 v 14.176 C 61.176 64.896 53.919 72.153 45 72.153 z" style="stroke: none; stroke-width: 1; stroke-dasharray: none; stroke-linecap: butt; stroke-linejoin: miter; stroke-miterlimit: 10; fill: rgb(171,172,181); fill-rule: nonzero; opacity: 1;" transform=" matrix(1 0 0 1 0 0) " stroke-linecap="round" />
	<path d="M 34.84 43.801 h -8.103 c -1.104 0 -2 -0.896 -2 -2 s 0.896 -2 2 -2 h 8.103 c 1.104 0 2 0.896 2 2 S 35.945 43.801 34.84 43.801 z" style="stroke: none; stroke-width: 1; stroke-dasharray: none; stroke-linecap: butt; stroke-linejoin: miter; stroke-miterlimit: 10; fill: rgb(171,172,181); fill-rule: nonzero; opacity: 1;" transform=" matrix(1 0 0 1 0 0) " stroke-linecap="round" />
	<path d="M 63.227 43.801 h -8.103 c -1.104 0 -2 -0.896 -2 -2 s 0.896 -2 2 -2 h 8.103 c 1.104 0 2 0.896 2 2 S 64.332 43.801 63.227 43.801 z" style="stroke: none; stroke-width: 1; stroke-dasharray: none; stroke-linecap: butt; stroke-linejoin: miter; stroke-miterlimit: 10; fill: rgb(171,172,181); fill-rule: nonzero; opacity: 1;" transform=" matrix(1 0 0 1 0 0) " stroke-linecap="round" />
</g>
</svg>