<?xml version="1.0" encoding="utf-8"?>
<!-- Generator: Adobe Illustrator 25.4.1, SVG Export Plug-In . SVG Version: 6.00 Build 0)  -->
<svg version="1.0" id="Layer_1" xmlns="http://www.w3.org/2000/svg" xmlns:xlink="http://www.w3.org/1999/xlink" x="0px" y="0px"
	 viewBox="0 0 24 24" style="enable-background:new 0 0 24 24;" xml:space="preserve">
<style type="text/css">
	.st0{fill-rule:evenodd;clip-rule:evenodd;fill:#ABACB5;}
</style>
<g>
	<path class="st0" d="M17.63,3.09c-1.23,0.3-3.08,1.52-4,2.44C8.39,10.7,8.39,10.7,8.39,10.7c-0.31,0.3-0.31,1.22,0,1.52
		c2.77,2.74,2.77,2.74,2.77,2.74c0.31,0.3,1.23,0.3,1.54,0c5.23-5.18,5.23-5.18,5.23-5.18c0.92-0.91,2.16-2.74,2.46-3.96
		c1.54-4.26,1.54-4.26,1.54-4.26L17.63,3.09L17.63,3.09L17.63,3.09z M14.24,11.92c-0.92,0.61-2.16,0.61-2.77,0
		c-0.62-0.61-0.62-1.83,0-2.74c0.62-0.61,1.85-0.61,2.77,0C14.86,10.09,14.86,11.31,14.24,11.92L14.24,11.92z M17.63,8.57
		c-0.62,0.61-1.85,0.61-2.77,0c-0.62-0.91-0.62-2.13,0-2.74c0.92-0.61,2.16-0.61,2.77,0C18.24,6.44,18.24,7.66,17.63,8.57
		L17.63,8.57z"/>
	<path class="st0" d="M5.09,12.23c4.33-4.3,4.33-4.3,4.33-4.3c-0.93-0.92-2.47-0.92-3.4,0c-2.78,2.76-2.78,2.76-2.78,2.76
		c-0.31,0.31-0.31,1.23,0,1.54C3.85,12.84,4.47,12.84,5.09,12.23L5.09,12.23z"/>
	<path class="st0" d="M11.19,18.34c-0.61,0.6-0.61,1.19,0,1.79c0.3,0.3,1.21,0.3,1.52,0c2.73-2.68,2.73-2.68,2.73-2.68
		c0.91-0.89,0.91-2.39,0-3.28L11.19,18.34L11.19,18.34L11.19,18.34z"/>
	<path class="st0" d="M7.28,13.82c-0.3,0-0.3,0.62,0,0.62c1.81,1.85,1.81,1.85,1.81,1.85c0,0.31,0.6,0.31,0.6,0
		c0.6-0.31,0.6-0.31,0.6-0.31c-2.71-2.78-2.71-2.78-2.71-2.78L7.28,13.82L7.28,13.82L7.28,13.82z"/>
	<path class="st0" d="M2.26,21.09c2.49-1.21,6.23-3.63,4.98-4.84S3.51,18.67,2.26,21.09L2.26,21.09z"/>
</g>
</svg>
