<svg width="25" height="24" viewBox="0 0 25 24" fill="none" xmlns="http://www.w3.org/2000/svg">
<path d="M21.3 16.0008V7.99918C21.2997 7.64838 21.2091 7.30385 21.0375 7.00014C20.8659 6.69643 20.6192 6.44422 20.3222 6.26882L13.4778 2.268C13.1805 2.09243 12.8433 2 12.5 2C12.1567 2 11.8195 2.09243 11.5222 2.268L4.67779 6.26882C4.3808 6.44422 4.13413 6.69643 3.96251 7.00014C3.79089 7.30385 3.70036 7.64838 3.70001 7.99918V16.0008C3.70036 16.3516 3.79089 16.6962 3.96251 16.9999C4.13413 17.3036 4.3808 17.5558 4.67779 17.7312L11.5222 21.732C11.8195 21.9076 12.1567 22 12.5 22C12.8433 22 13.1805 21.9076 13.4778 21.732L20.3222 17.7312C20.6192 17.5558 20.8659 17.3036 21.0375 16.9999C21.2091 16.6962 21.2997 16.3516 21.3 16.0008Z" stroke="#81DF0D" stroke-width="1.5" stroke-linecap="round" stroke-linejoin="round"/>
<path d="M17.7 14.4005V9.59951C17.6998 9.38903 17.6463 9.18231 17.5449 9.00008C17.4435 8.81786 17.2977 8.66653 17.1222 8.56129L13.0778 6.1608C12.9021 6.05546 12.7028 6 12.5 6C12.2971 6 12.0979 6.05546 11.9222 6.1608L7.87777 8.56129C7.70227 8.66653 7.55651 8.81786 7.4551 9.00008C7.35369 9.18231 7.3002 9.38903 7.29999 9.59951V14.4005C7.3002 14.611 7.35369 14.8177 7.4551 14.9999C7.55651 15.1821 7.70227 15.3335 7.87777 15.4387L11.9222 17.8392C12.0979 17.9445 12.2971 18 12.5 18C12.7028 18 12.9021 17.9445 13.0778 17.8392L17.1222 15.4387C17.2977 15.3335 17.4435 15.1821 17.5449 14.9999C17.6463 14.8177 17.6998 14.611 17.7 14.4005Z" stroke="#81DF0D" stroke-width="0.5" stroke-linecap="round" stroke-linejoin="round"/>
</svg>
