<svg width="24" height="24" viewBox="0 0 24 24" fill="none" xmlns="http://www.w3.org/2000/svg">
<path d="M6.44122 9.22656C6.44122 8.81235 6.10544 8.47656 5.69122 8.47656C5.27701 8.47656 4.94122 8.81235 4.94122 9.22656H6.44122ZM5.69122 22.0634H4.94122V22.8134H5.69122V22.0634ZM4.94122 9.22656V22.0634H6.44122V9.22656H4.94122ZM5.69122 22.8134H12.1572V21.3134H5.69122V22.8134Z" fill="#6BC909"/>
<path d="M17.4928 9.22656C17.4928 8.81235 17.8286 8.47656 18.2428 8.47656C18.657 8.47656 18.9928 8.81235 18.9928 9.22656H17.4928ZM18.2428 22.0634H18.9928V22.8134H18.2428V22.0634ZM18.9928 9.22656V22.0634H17.4928V9.22656H18.9928ZM18.2428 22.8134H12.168V21.3134H18.2428V22.8134Z" fill="#6BC909"/>
<path d="M1.98285 11.9207H1.23285V12.6707H1.98285V11.9207ZM1.98285 7.76855H2.73285V7.75983L2.73265 7.75111L1.98285 7.76855ZM8.82913 1.93652L9.25597 1.31983L8.91708 1.08527L8.5374 1.24559L8.82913 1.93652ZM11.9431 4.09185L11.5163 4.70854L11.9417 5.00298L12.368 4.70989L11.9431 4.09185ZM15.0782 1.93652L15.369 1.24519L14.9912 1.08625L14.6534 1.31848L15.0782 1.93652ZM19.3406 3.72935L19.6317 3.03813L19.6314 3.03802L19.3406 3.72935ZM22.0178 11.9207V12.6707H22.7678V11.9207H22.0178ZM5.69125 11.1707H1.98285V12.6707H5.69125V11.1707ZM2.73285 11.9207V7.76855H1.23285V11.9207H2.73285ZM2.73265 7.75111C2.72418 7.38729 2.79568 6.76266 3.04295 6.15905C3.28808 5.56068 3.67737 5.047 4.26631 4.77094L3.62966 3.41275C2.59577 3.89739 1.99193 4.76775 1.65491 5.59041C1.32005 6.40783 1.22038 7.2412 1.23305 7.78598L2.73265 7.75111ZM4.26631 4.77094C5.87568 4.01655 8.17241 3.02792 9.12086 2.62746L8.5374 1.24559C7.5841 1.64809 5.26593 2.64575 3.62966 3.41275L4.26631 4.77094ZM8.40229 2.55321L11.5163 4.70854L12.3699 3.47516L9.25597 1.31983L8.40229 2.55321ZM12.368 4.70989L15.5031 2.55456L14.6534 1.31848L11.5182 3.47381L12.368 4.70989ZM14.7875 2.62786L19.0499 4.42069L19.6314 3.03802L15.369 1.24519L14.7875 2.62786ZM19.0496 4.42058C19.766 4.72223 21.2678 5.87555 21.2678 7.95652H22.7678C22.7678 5.07761 20.7001 3.48797 19.6317 3.03813L19.0496 4.42058ZM21.2678 7.95652C21.2678 7.96137 21.2678 7.96621 21.2678 7.97104C21.2678 7.97587 21.2678 7.9807 21.2678 7.98553C21.2678 7.99035 21.2678 7.99517 21.2678 7.99998C21.2678 8.0048 21.2678 8.00961 21.2678 8.01441C21.2678 8.01922 21.2678 8.02402 21.2678 8.02881C21.2678 8.03361 21.2678 8.03839 21.2678 8.04318C21.2678 8.04796 21.2678 8.05274 21.2678 8.05752C21.2678 8.0623 21.2678 8.06707 21.2678 8.07183C21.2678 8.0766 21.2678 8.08136 21.2678 8.08611C21.2678 8.09087 21.2678 8.09562 21.2678 8.10037C21.2678 8.10511 21.2678 8.10985 21.2678 8.11459C21.2678 8.11932 21.2678 8.12406 21.2678 8.12878C21.2678 8.13351 21.2678 8.13823 21.2678 8.14295C21.2678 8.14766 21.2678 8.15238 21.2678 8.15708C21.2678 8.16179 21.2678 8.16649 21.2678 8.17119C21.2678 8.17589 21.2678 8.18058 21.2678 8.18527C21.2678 8.18995 21.2678 8.19464 21.2678 8.19932C21.2678 8.20399 21.2678 8.20867 21.2678 8.21334C21.2678 8.218 21.2678 8.22267 21.2678 8.22732C21.2678 8.23198 21.2678 8.23664 21.2678 8.24129C21.2678 8.24593 21.2678 8.25058 21.2678 8.25522C21.2678 8.25986 21.2678 8.26449 21.2678 8.26912C21.2678 8.27375 21.2678 8.27838 21.2678 8.283C21.2678 8.28762 21.2678 8.29223 21.2678 8.29684C21.2678 8.30145 21.2678 8.30606 21.2678 8.31066C21.2678 8.31526 21.2678 8.31985 21.2678 8.32444C21.2678 8.32903 21.2678 8.33362 21.2678 8.3382C21.2678 8.34278 21.2678 8.34736 21.2678 8.35193C21.2678 8.3565 21.2678 8.36107 21.2678 8.36563C21.2678 8.37019 21.2678 8.37475 21.2678 8.3793C21.2678 8.38385 21.2678 8.3884 21.2678 8.39294C21.2678 8.39749 21.2678 8.40203 21.2678 8.40656C21.2678 8.41109 21.2678 8.41562 21.2678 8.42014C21.2678 8.42467 21.2678 8.42919 21.2678 8.4337C21.2678 8.43821 21.2678 8.44272 21.2678 8.44723C21.2678 8.45173 21.2678 8.45623 21.2678 8.46072C21.2678 8.46522 21.2678 8.46971 21.2678 8.47419C21.2678 8.47868 21.2678 8.48316 21.2678 8.48764C21.2678 8.49211 21.2678 8.49658 21.2678 8.50105C21.2678 8.50551 21.2678 8.50997 21.2678 8.51443C21.2678 8.51889 21.2678 8.52334 21.2678 8.52779C21.2678 8.53223 21.2678 8.53667 21.2678 8.54111C21.2678 8.54555 21.2678 8.54998 21.2678 8.55441C21.2678 8.55884 21.2678 8.56326 21.2678 8.56768C21.2678 8.57209 21.2678 8.57651 21.2678 8.58092C21.2678 8.58533 21.2678 8.58973 21.2678 8.59413C21.2678 8.59853 21.2678 8.60292 21.2678 8.60731C21.2678 8.6117 21.2678 8.61609 21.2678 8.62046C21.2678 8.62485 21.2678 8.62922 21.2678 8.63359C21.2678 8.63796 21.2678 8.64233 21.2678 8.64669C21.2678 8.65105 21.2678 8.6554 21.2678 8.65976C21.2678 8.66411 21.2678 8.66845 21.2678 8.6728C21.2678 8.67714 21.2678 8.68147 21.2678 8.68581C21.2678 8.69014 21.2678 8.69447 21.2678 8.69879C21.2678 8.70311 21.2678 8.70743 21.2678 8.71174C21.2678 8.71606 21.2678 8.72037 21.2678 8.72467C21.2678 8.72897 21.2678 8.73327 21.2678 8.73757C21.2678 8.74186 21.2678 8.74615 21.2678 8.75044C21.2678 8.75472 21.2678 8.759 21.2678 8.76328C21.2678 8.76755 21.2678 8.77182 21.2678 8.77609C21.2678 8.78036 21.2678 8.78462 21.2678 8.78887C21.2678 8.79313 21.2678 8.79738 21.2678 8.80163C21.2678 8.80588 21.2678 8.81012 21.2678 8.81436C21.2678 8.81859 21.2678 8.82283 21.2678 8.82706C21.2678 8.83128 21.2678 8.83551 21.2678 8.83973C21.2678 8.84395 21.2678 8.84816 21.2678 8.85237C21.2678 8.85658 21.2678 8.86078 21.2678 8.86498C21.2678 8.86918 21.2678 8.87338 21.2678 8.87757C21.2678 8.88176 21.2678 8.88594 21.2678 8.89013C21.2678 8.89431 21.2678 8.89848 21.2678 8.90266C21.2678 8.90683 21.2678 8.91099 21.2678 8.91516C21.2678 8.91932 21.2678 8.92348 21.2678 8.92763C21.2678 8.93178 21.2678 8.93593 21.2678 8.94007C21.2678 8.94422 21.2678 8.94836 21.2678 8.95249C21.2678 8.95662 21.2678 8.96075 21.2678 8.96488C21.2678 8.969 21.2678 8.97312 21.2678 8.97724C21.2678 8.98135 21.2678 8.98547 21.2678 8.98957C21.2678 8.99368 21.2678 8.99778 21.2678 9.00188C21.2678 9.00597 21.2678 9.01006 21.2678 9.01415C21.2678 9.01824 21.2678 9.02232 21.2678 9.0264C21.2678 9.03048 21.2678 9.03455 21.2678 9.03862C21.2678 9.04269 21.2678 9.04675 21.2678 9.05081C21.2678 9.05487 21.2678 9.05893 21.2678 9.06297C21.2678 9.06702 21.2678 9.07107 21.2678 9.07511C21.2678 9.07915 21.2678 9.08319 21.2678 9.08722C21.2678 9.09125 21.2678 9.09528 21.2678 9.0993C21.2678 9.10332 21.2678 9.10734 21.2678 9.11135C21.2678 9.11536 21.2678 9.11937 21.2678 9.12337C21.2678 9.12738 21.2678 9.13138 21.2678 9.13537C21.2678 9.13937 21.2678 9.14335 21.2678 9.14734C21.2678 9.15132 21.2678 9.1553 21.2678 9.15928C21.2678 9.16326 21.2678 9.16723 21.2678 9.17119C21.2678 9.17516 21.2678 9.17912 21.2678 9.18308C21.2678 9.18703 21.2678 9.19099 21.2678 9.19493C21.2678 9.19888 21.2678 9.20283 21.2678 9.20676C21.2678 9.2107 21.2678 9.21464 21.2678 9.21856C21.2678 9.22249 21.2678 9.22642 21.2678 9.23034C21.2678 9.23426 21.2678 9.23817 21.2678 9.24208C21.2678 9.24599 21.2678 9.2499 21.2678 9.2538C21.2678 9.2577 21.2678 9.2616 21.2678 9.26549C21.2678 9.26938 21.2678 9.27327 21.2678 9.27715C21.2678 9.28104 21.2678 9.28492 21.2678 9.28879C21.2678 9.29266 21.2678 9.29653 21.2678 9.3004C21.2678 9.30426 21.2678 9.30812 21.2678 9.31198C21.2678 9.31583 21.2678 9.31968 21.2678 9.32353C21.2678 9.32737 21.2678 9.33122 21.2678 9.33505C21.2678 9.33889 21.2678 9.34272 21.2678 9.34655C21.2678 9.35038 21.2678 9.3542 21.2678 9.35802C21.2678 9.36184 21.2678 9.36565 21.2678 9.36946C21.2678 9.37327 21.2678 9.37707 21.2678 9.38088C21.2678 9.38468 21.2678 9.38847 21.2678 9.39226C21.2678 9.39605 21.2678 9.39984 21.2678 9.40362C21.2678 9.4074 21.2678 9.41118 21.2678 9.41495C21.2678 9.41872 21.2678 9.42249 21.2678 9.42626C21.2678 9.43002 21.2678 9.43378 21.2678 9.43753C21.2678 9.44129 21.2678 9.44504 21.2678 9.44878C21.2678 9.45253 21.2678 9.45627 21.2678 9.46C21.2678 9.46374 21.2678 9.46747 21.2678 9.4712C21.2678 9.47492 21.2678 9.47865 21.2678 9.48236C21.2678 9.48608 21.2678 9.4898 21.2678 9.4935C21.2678 9.49721 21.2678 9.50092 21.2678 9.50462C21.2678 9.50832 21.2678 9.51201 21.2678 9.5157C21.2678 9.51939 21.2678 9.52308 21.2678 9.52676C21.2678 9.53044 21.2678 9.53412 21.2678 9.53779C21.2678 9.54146 21.2678 9.54513 21.2678 9.54879C21.2678 9.55245 21.2678 9.55611 21.2678 9.55977C21.2678 9.56342 21.2678 9.56707 21.2678 9.57071C21.2678 9.57436 21.2678 9.578 21.2678 9.58164C21.2678 9.58527 21.2678 9.5889 21.2678 9.59253C21.2678 9.59616 21.2678 9.59978 21.2678 9.6034C21.2678 9.60701 21.2678 9.61063 21.2678 9.61424C21.2678 9.61784 21.2678 9.62145 21.2678 9.62505C21.2678 9.62865 21.2678 9.63224 21.2678 9.63583C21.2678 9.63942 21.2678 9.64301 21.2678 9.64659C21.2678 9.65017 21.2678 9.65375 21.2678 9.65732C21.2678 9.66089 21.2678 9.66446 21.2678 9.66802C21.2678 9.67159 21.2678 9.67515 21.2678 9.6787C21.2678 9.68226 21.2678 9.68581 21.2678 9.68935C21.2678 9.6929 21.2678 9.69644 21.2678 9.69997C21.2678 9.70351 21.2678 9.70704 21.2678 9.71057C21.2678 9.7141 21.2678 9.71762 21.2678 9.72114C21.2678 9.72465 21.2678 9.72817 21.2678 9.73168C21.2678 9.73519 21.2678 9.73869 21.2678 9.74219C21.2678 9.74569 21.2678 9.74919 21.2678 9.75268C21.2678 9.75617 21.2678 9.75966 21.2678 9.76314C21.2678 9.76662 21.2678 9.7701 21.2678 9.77357C21.2678 9.77705 21.2678 9.78051 21.2678 9.78398C21.2678 9.78744 21.2678 9.7909 21.2678 9.79436C21.2678 9.79781 21.2678 9.80126 21.2678 9.80471C21.2678 9.80816 21.2678 9.8116 21.2678 9.81504C21.2678 9.81847 21.2678 9.82191 21.2678 9.82534C21.2678 9.82876 21.2678 9.83219 21.2678 9.83561C21.2678 9.83903 21.2678 9.84244 21.2678 9.84585C21.2678 9.84926 21.2678 9.85267 21.2678 9.85607C21.2678 9.85947 21.2678 9.86287 21.2678 9.86626C21.2678 9.86966 21.2678 9.87304 21.2678 9.87643C21.2678 9.87981 21.2678 9.88319 21.2678 9.88657C21.2678 9.88994 21.2678 9.89331 21.2678 9.89668C21.2678 9.90004 21.2678 9.9034 21.2678 9.90676C21.2678 9.91012 21.2678 9.91347 21.2678 9.91682C21.2678 9.92017 21.2678 9.92351 21.2678 9.92685C21.2678 9.93019 21.2678 9.93352 21.2678 9.93686C21.2678 9.94019 21.2678 9.94351 21.2678 9.94683C21.2678 9.95015 21.2678 9.95347 21.2678 9.95678C21.2678 9.9601 21.2678 9.9634 21.2678 9.96671C21.2678 9.97001 21.2678 9.97331 21.2678 9.97661C21.2678 9.9799 21.2678 9.98319 21.2678 9.98648C21.2678 9.98976 21.2678 9.99305 21.2678 9.99632C21.2678 9.9996 21.2678 10.0029 21.2678 10.0061C21.2678 10.0094 21.2678 10.0127 21.2678 10.0159C21.2678 10.0192 21.2678 10.0224 21.2678 10.0257C21.2678 10.0289 21.2678 10.0322 21.2678 10.0354C21.2678 10.0387 21.2678 10.0419 21.2678 10.0451C21.2678 10.0484 21.2678 10.0516 21.2678 10.0548C21.2678 10.0581 21.2678 10.0613 21.2678 10.0645C21.2678 10.0677 21.2678 10.0709 21.2678 10.0741C21.2678 10.0773 21.2678 10.0805 21.2678 10.0837C21.2678 10.0869 21.2678 10.0901 21.2678 10.0933C21.2678 10.0965 21.2678 10.0997 21.2678 10.1029C21.2678 10.106 21.2678 10.1092 21.2678 10.1124C21.2678 10.1156 21.2678 10.1187 21.2678 10.1219C21.2678 10.1251 21.2678 10.1282 21.2678 10.1314C21.2678 10.1345 21.2678 10.1377 21.2678 10.1408C21.2678 10.144 21.2678 10.1471 21.2678 10.1502C21.2678 10.1534 21.2678 10.1565 21.2678 10.1596C21.2678 10.1628 21.2678 10.1659 21.2678 10.169C21.2678 10.1721 21.2678 10.1752 21.2678 10.1783C21.2678 10.1815 21.2678 10.1846 21.2678 10.1877C21.2678 10.1908 21.2678 10.1939 21.2678 10.197C21.2678 10.2 21.2678 10.2031 21.2678 10.2062C21.2678 10.2093 21.2678 10.2124 21.2678 10.2155C21.2678 10.2185 21.2678 10.2216 21.2678 10.2247C21.2678 10.2277 21.2678 10.2308 21.2678 10.2339C21.2678 10.2369 21.2678 10.24 21.2678 10.243C21.2678 10.2461 21.2678 10.2491 21.2678 10.2521C21.2678 10.2552 21.2678 10.2582 21.2678 10.2613C21.2678 10.2643 21.2678 10.2673 21.2678 10.2703C21.2678 10.2734 21.2678 10.2764 21.2678 10.2794C21.2678 10.2824 21.2678 10.2854 21.2678 10.2884C21.2678 10.2914 21.2678 10.2944 21.2678 10.2974C21.2678 10.3004 21.2678 10.3034 21.2678 10.3064C21.2678 10.3094 21.2678 10.3124 21.2678 10.3153C21.2678 10.3183 21.2678 10.3213 21.2678 10.3243C21.2678 10.3272 21.2678 10.3302 21.2678 10.3332C21.2678 10.3361 21.2678 10.3391 21.2678 10.342C21.2678 10.345 21.2678 10.3479 21.2678 10.3509C21.2678 10.3538 21.2678 10.3568 21.2678 10.3597C21.2678 10.3627 21.2678 10.3656 21.2678 10.3685C21.2678 10.3714 21.2678 10.3744 21.2678 10.3773C21.2678 10.3802 21.2678 10.3831 21.2678 10.386C21.2678 10.3889 21.2678 10.3918 21.2678 10.3947C21.2678 10.3976 21.2678 10.4005 21.2678 10.4034C21.2678 10.4063 21.2678 10.4092 21.2678 10.4121C21.2678 10.415 21.2678 10.4179 21.2678 10.4207C21.2678 10.4236 21.2678 10.4265 21.2678 10.4294C21.2678 10.4322 21.2678 10.4351 21.2678 10.4379C21.2678 10.4408 21.2678 10.4437 21.2678 10.4465C21.2678 10.4494 21.2678 10.4522 21.2678 10.455C21.2678 10.4579 21.2678 10.4607 21.2678 10.4636C21.2678 10.4664 21.2678 10.4692 21.2678 10.472C21.2678 10.4749 21.2678 10.4777 21.2678 10.4805C21.2678 10.4833 21.2678 10.4861 21.2678 10.4889C21.2678 10.4917 21.2678 10.4945 21.2678 10.4973C21.2678 10.5001 21.2678 10.5029 21.2678 10.5057C21.2678 10.5085 21.2678 10.5113 21.2678 10.5141C21.2678 10.5169 21.2678 10.5196 21.2678 10.5224C21.2678 10.5252 21.2678 10.528 21.2678 10.5307C21.2678 10.5335 21.2678 10.5362 21.2678 10.539C21.2678 10.5418 21.2678 10.5445 21.2678 10.5473C21.2678 10.55 21.2678 10.5527 21.2678 10.5555C21.2678 10.5582 21.2678 10.561 21.2678 10.5637C21.2678 10.5664 21.2678 10.5691 21.2678 10.5719C21.2678 10.5746 21.2678 10.5773 21.2678 10.58C21.2678 10.5827 21.2678 10.5854 21.2678 10.5882C21.2678 10.5909 21.2678 10.5936 21.2678 10.5963C21.2678 10.599 21.2678 10.6016 21.2678 10.6043C21.2678 10.607 21.2678 10.6097 21.2678 10.6124C21.2678 10.6151 21.2678 10.6177 21.2678 10.6204C21.2678 10.6231 21.2678 10.6257 21.2678 10.6284C21.2678 10.6311 21.2678 10.6337 21.2678 10.6364C21.2678 10.639 21.2678 10.6417 21.2678 10.6443C21.2678 10.647 21.2678 10.6496 21.2678 10.6523C21.2678 10.6549 21.2678 10.6575 21.2678 10.6602C21.2678 10.6628 21.2678 10.6654 21.2678 10.668C21.2678 10.6707 21.2678 10.6733 21.2678 10.6759C21.2678 10.6785 21.2678 10.6811 21.2678 10.6837C21.2678 10.6863 21.2678 10.6889 21.2678 10.6915C21.2678 10.6941 21.2678 10.6967 21.2678 10.6993C21.2678 10.7019 21.2678 10.7044 21.2678 10.707C21.2678 10.7096 21.2678 10.7122 21.2678 10.7147C21.2678 10.7173 21.2678 10.7199 21.2678 10.7224C21.2678 10.725 21.2678 10.7276 21.2678 10.7301C21.2678 10.7327 21.2678 10.7352 21.2678 10.7378C21.2678 10.7403 21.2678 10.7428 21.2678 10.7454C21.2678 10.7479 21.2678 10.7505 21.2678 10.753C21.2678 10.7555 21.2678 10.758 21.2678 10.7606C21.2678 10.7631 21.2678 10.7656 21.2678 10.7681C21.2678 10.7706 21.2678 10.7731 21.2678 10.7756C21.2678 10.7781 21.2678 10.7806 21.2678 10.7831C21.2678 10.7856 21.2678 10.7881 21.2678 10.7906C21.2678 10.7931 21.2678 10.7956 21.2678 10.798C21.2678 10.8005 21.2678 10.803 21.2678 10.8055C21.2678 10.8079 21.2678 10.8104 21.2678 10.8128C21.2678 10.8153 21.2678 10.8178 21.2678 10.8202C21.2678 10.8227 21.2678 10.8251 21.2678 10.8276C21.2678 10.83 21.2678 10.8325 21.2678 10.8349C21.2678 10.8373 21.2678 10.8398 21.2678 10.8422C21.2678 10.8446 21.2678 10.847 21.2678 10.8495C21.2678 10.8519 21.2678 10.8543 21.2678 10.8567C21.2678 10.8591 21.2678 10.8615 21.2678 10.8639C21.2678 10.8663 21.2678 10.8687 21.2678 10.8711C21.2678 10.8735 21.2678 10.8759 21.2678 10.8783C21.2678 10.8807 21.2678 10.8831 21.2678 10.8854C21.2678 10.8878 21.2678 10.8902 21.2678 10.8926C21.2678 10.8949 21.2678 10.8973 21.2678 10.8997C21.2678 10.902 21.2678 10.9044 21.2678 10.9067C21.2678 10.9091 21.2678 10.9114 21.2678 10.9138C21.2678 10.9161 21.2678 10.9185 21.2678 10.9208C21.2678 10.9231 21.2678 10.9255 21.2678 10.9278C21.2678 10.9301 21.2678 10.9325 21.2678 10.9348C21.2678 10.9371 21.2678 10.9394 21.2678 10.9417C21.2678 10.944 21.2678 10.9464 21.2678 10.9487C21.2678 10.951 21.2678 10.9533 21.2678 10.9556C21.2678 10.9579 21.2678 10.9601 21.2678 10.9624C21.2678 10.9647 21.2678 10.967 21.2678 10.9693C21.2678 10.9716 21.2678 10.9738 21.2678 10.9761C21.2678 10.9784 21.2678 10.9806 21.2678 10.9829C21.2678 10.9852 21.2678 10.9874 21.2678 10.9897C21.2678 10.9919 21.2678 10.9942 21.2678 10.9964C21.2678 10.9987 21.2678 11.0009 21.2678 11.0032C21.2678 11.0054 21.2678 11.0076 21.2678 11.0099C21.2678 11.0121 21.2678 11.0143 21.2678 11.0166C21.2678 11.0188 21.2678 11.021 21.2678 11.0232C21.2678 11.0254 21.2678 11.0276 21.2678 11.0298C21.2678 11.032 21.2678 11.0342 21.2678 11.0364C21.2678 11.0386 21.2678 11.0408 21.2678 11.043C21.2678 11.0452 21.2678 11.0474 21.2678 11.0496C21.2678 11.0518 21.2678 11.0539 21.2678 11.0561C21.2678 11.0583 21.2678 11.0605 21.2678 11.0626C21.2678 11.0648 21.2678 11.0669 21.2678 11.0691C21.2678 11.0713 21.2678 11.0734 21.2678 11.0756C21.2678 11.0777 21.2678 11.0799 21.2678 11.082C21.2678 11.0841 21.2678 11.0863 21.2678 11.0884C21.2678 11.0905 21.2678 11.0927 21.2678 11.0948C21.2678 11.0969 21.2678 11.099 21.2678 11.1012C21.2678 11.1033 21.2678 11.1054 21.2678 11.1075C21.2678 11.1096 21.2678 11.1117 21.2678 11.1138C21.2678 11.1159 21.2678 11.118 21.2678 11.1201C21.2678 11.1222 21.2678 11.1243 21.2678 11.1264C21.2678 11.1285 21.2678 11.1305 21.2678 11.1326C21.2678 11.1347 21.2678 11.1368 21.2678 11.1388C21.2678 11.1409 21.2678 11.143 21.2678 11.145C21.2678 11.1471 21.2678 11.1491 21.2678 11.1512C21.2678 11.1532 21.2678 11.1553 21.2678 11.1573C21.2678 11.1594 21.2678 11.1614 21.2678 11.1635C21.2678 11.1655 21.2678 11.1675 21.2678 11.1695C21.2678 11.1716 21.2678 11.1736 21.2678 11.1756C21.2678 11.1776 21.2678 11.1797 21.2678 11.1817C21.2678 11.1837 21.2678 11.1857 21.2678 11.1877C21.2678 11.1897 21.2678 11.1917 21.2678 11.1937C21.2678 11.1957 21.2678 11.1977 21.2678 11.1997C21.2678 11.2017 21.2678 11.2036 21.2678 11.2056C21.2678 11.2076 21.2678 11.2096 21.2678 11.2115C21.2678 11.2135 21.2678 11.2155 21.2678 11.2175C21.2678 11.2194 21.2678 11.2214 21.2678 11.2233C21.2678 11.2253 21.2678 11.2272 21.2678 11.2292C21.2678 11.2311 21.2678 11.2331 21.2678 11.235C21.2678 11.237 21.2678 11.2389 21.2678 11.2408C21.2678 11.2428 21.2678 11.2447 21.2678 11.2466C21.2678 11.2485 21.2678 11.2505 21.2678 11.2524C21.2678 11.2543 21.2678 11.2562 21.2678 11.2581C21.2678 11.26 21.2678 11.2619 21.2678 11.2638C21.2678 11.2657 21.2678 11.2676 21.2678 11.2695C21.2678 11.2714 21.2678 11.2733 21.2678 11.2752C21.2678 11.2771 21.2678 11.2789 21.2678 11.2808C21.2678 11.2827 21.2678 11.2846 21.2678 11.2864C21.2678 11.2883 21.2678 11.2902 21.2678 11.292C21.2678 11.2939 21.2678 11.2957 21.2678 11.2976C21.2678 11.2995 21.2678 11.3013 21.2678 11.3031C21.2678 11.305 21.2678 11.3068 21.2678 11.3087C21.2678 11.3105 21.2678 11.3123 21.2678 11.3142C21.2678 11.316 21.2678 11.3178 21.2678 11.3196C21.2678 11.3215 21.2678 11.3233 21.2678 11.3251C21.2678 11.3269 21.2678 11.3287 21.2678 11.3305C21.2678 11.3323 21.2678 11.3341 21.2678 11.3359C21.2678 11.3377 21.2678 11.3395 21.2678 11.3413C21.2678 11.3431 21.2678 11.3449 21.2678 11.3467C21.2678 11.3485 21.2678 11.3502 21.2678 11.352C21.2678 11.3538 21.2678 11.3556 21.2678 11.3573C21.2678 11.3591 21.2678 11.3608 21.2678 11.3626C21.2678 11.3644 21.2678 11.3661 21.2678 11.3679C21.2678 11.3696 21.2678 11.3714 21.2678 11.3731C21.2678 11.3749 21.2678 11.3766 21.2678 11.3783C21.2678 11.3801 21.2678 11.3818 21.2678 11.3835C21.2678 11.3852 21.2678 11.387 21.2678 11.3887C21.2678 11.3904 21.2678 11.3921 21.2678 11.3938C21.2678 11.3955 21.2678 11.3973 21.2678 11.399C21.2678 11.4007 21.2678 11.4024 21.2678 11.4041C21.2678 11.4058 21.2678 11.4074 21.2678 11.4091C21.2678 11.4108 21.2678 11.4125 21.2678 11.4142C21.2678 11.4159 21.2678 11.4175 21.2678 11.4192C21.2678 11.4209 21.2678 11.4226 21.2678 11.4242C21.2678 11.4259 21.2678 11.4275 21.2678 11.4292C21.2678 11.4309 21.2678 11.4325 21.2678 11.4342C21.2678 11.4358 21.2678 11.4375 21.2678 11.4391C21.2678 11.4407 21.2678 11.4424 21.2678 11.444C21.2678 11.4456 21.2678 11.4473 21.2678 11.4489C21.2678 11.4505 21.2678 11.4522 21.2678 11.4538C21.2678 11.4554 21.2678 11.457 21.2678 11.4586C21.2678 11.4602 21.2678 11.4618 21.2678 11.4634C21.2678 11.465 21.2678 11.4666 21.2678 11.4682C21.2678 11.4698 21.2678 11.4714 21.2678 11.473C21.2678 11.4746 21.2678 11.4762 21.2678 11.4778C21.2678 11.4793 21.2678 11.4809 21.2678 11.4825C21.2678 11.4841 21.2678 11.4856 21.2678 11.4872C21.2678 11.4888 21.2678 11.4903 21.2678 11.4919C21.2678 11.4934 21.2678 11.495 21.2678 11.4965C21.2678 11.4981 21.2678 11.4996 21.2678 11.5012C21.2678 11.5027 21.2678 11.5042 21.2678 11.5058C21.2678 11.5073 21.2678 11.5088 21.2678 11.5104C21.2678 11.5119 21.2678 11.5134 21.2678 11.5149C21.2678 11.5164 21.2678 11.518 21.2678 11.5195C21.2678 11.521 21.2678 11.5225 21.2678 11.524C21.2678 11.5255 21.2678 11.527 21.2678 11.5285C21.2678 11.53 21.2678 11.5315 21.2678 11.533C21.2678 11.5345 21.2678 11.5359 21.2678 11.5374C21.2678 11.5389 21.2678 11.5404 21.2678 11.5418C21.2678 11.5433 21.2678 11.5448 21.2678 11.5463C21.2678 11.5477 21.2678 11.5492 21.2678 11.5506C21.2678 11.5521 21.2678 11.5535 21.2678 11.555C21.2678 11.5564 21.2678 11.5579 21.2678 11.5593C21.2678 11.5608 21.2678 11.5622 21.2678 11.5636C21.2678 11.5651 21.2678 11.5665 21.2678 11.5679C21.2678 11.5694 21.2678 11.5708 21.2678 11.5722C21.2678 11.5736 21.2678 11.575 21.2678 11.5765C21.2678 11.5779 21.2678 11.5793 21.2678 11.5807C21.2678 11.5821 21.2678 11.5835 21.2678 11.5849C21.2678 11.5863 21.2678 11.5877 21.2678 11.5891C21.2678 11.5904 21.2678 11.5918 21.2678 11.5932C21.2678 11.5946 21.2678 11.596 21.2678 11.5973C21.2678 11.5987 21.2678 11.6001 21.2678 11.6015C21.2678 11.6028 21.2678 11.6042 21.2678 11.6055C21.2678 11.6069 21.2678 11.6083 21.2678 11.6096C21.2678 11.611 21.2678 11.6123 21.2678 11.6136C21.2678 11.615 21.2678 11.6163 21.2678 11.6177C21.2678 11.619 21.2678 11.6203 21.2678 11.6217C21.2678 11.623 21.2678 11.6243 21.2678 11.6256C21.2678 11.627 21.2678 11.6283 21.2678 11.6296C21.2678 11.6309 21.2678 11.6322 21.2678 11.6335C21.2678 11.6348 21.2678 11.6361 21.2678 11.6374C21.2678 11.6387 21.2678 11.64 21.2678 11.6413C21.2678 11.6426 21.2678 11.6439 21.2678 11.6452C21.2678 11.6465 21.2678 11.6477 21.2678 11.649C21.2678 11.6503 21.2678 11.6516 21.2678 11.6528C21.2678 11.6541 21.2678 11.6554 21.2678 11.6566C21.2678 11.6579 21.2678 11.6591 21.2678 11.6604C21.2678 11.6616 21.2678 11.6629 21.2678 11.6641C21.2678 11.6654 21.2678 11.6666 21.2678 11.6679C21.2678 11.6691 21.2678 11.6703 21.2678 11.6716C21.2678 11.6728 21.2678 11.674 21.2678 11.6753C21.2678 11.6765 21.2678 11.6777 21.2678 11.6789C21.2678 11.6801 21.2678 11.6813 21.2678 11.6826C21.2678 11.6838 21.2678 11.685 21.2678 11.6862C21.2678 11.6874 21.2678 11.6886 21.2678 11.6898C21.2678 11.691 21.2678 11.6921 21.2678 11.6933C21.2678 11.6945 21.2678 11.6957 21.2678 11.6969C21.2678 11.6981 21.2678 11.6992 21.2678 11.7004C21.2678 11.7016 21.2678 11.7027 21.2678 11.7039C21.2678 11.7051 21.2678 11.7062 21.2678 11.7074C21.2678 11.7085 21.2678 11.7097 21.2678 11.7109C21.2678 11.712 21.2678 11.7131 21.2678 11.7143C21.2678 11.7154 21.2678 11.7166 21.2678 11.7177C21.2678 11.7188 21.2678 11.72 21.2678 11.7211C21.2678 11.7222 21.2678 11.7233 21.2678 11.7245C21.2678 11.7256 21.2678 11.7267 21.2678 11.7278C21.2678 11.7289 21.2678 11.73 21.2678 11.7311C21.2678 11.7323 21.2678 11.7334 21.2678 11.7345C21.2678 11.7355 21.2678 11.7366 21.2678 11.7377C21.2678 11.7388 21.2678 11.7399 21.2678 11.741C21.2678 11.7421 21.2678 11.7432 21.2678 11.7442C21.2678 11.7453 21.2678 11.7464 21.2678 11.7474C21.2678 11.7485 21.2678 11.7496 21.2678 11.7506C21.2678 11.7517 21.2678 11.7528 21.2678 11.7538C21.2678 11.7549 21.2678 11.7559 21.2678 11.757C21.2678 11.758 21.2678 11.7591 21.2678 11.7601C21.2678 11.7611 21.2678 11.7622 21.2678 11.7632C21.2678 11.7642 21.2678 11.7653 21.2678 11.7663C21.2678 11.7673 21.2678 11.7683 21.2678 11.7694C21.2678 11.7704 21.2678 11.7714 21.2678 11.7724C21.2678 11.7734 21.2678 11.7744 21.2678 11.7754C21.2678 11.7764 21.2678 11.7774 21.2678 11.7784C21.2678 11.7794 21.2678 11.7804 21.2678 11.7814C21.2678 11.7824 21.2678 11.7834 21.2678 11.7843C21.2678 11.7853 21.2678 11.7863 21.2678 11.7873C21.2678 11.7882 21.2678 11.7892 21.2678 11.7902C21.2678 11.7912 21.2678 11.7921 21.2678 11.7931C21.2678 11.794 21.2678 11.795 21.2678 11.7959C21.2678 11.7969 21.2678 11.7978 21.2678 11.7988C21.2678 11.7997 21.2678 11.8007 21.2678 11.8016C21.2678 11.8026 21.2678 11.8035 21.2678 11.8044C21.2678 11.8053 21.2678 11.8063 21.2678 11.8072C21.2678 11.8081 21.2678 11.809 21.2678 11.81C21.2678 11.8109 21.2678 11.8118 21.2678 11.8127C21.2678 11.8136 21.2678 11.8145 21.2678 11.8154C21.2678 11.8163 21.2678 11.8172 21.2678 11.8181C21.2678 11.819 21.2678 11.8199 21.2678 11.8208C21.2678 11.8217 21.2678 11.8225 21.2678 11.8234C21.2678 11.8243 21.2678 11.8252 21.2678 11.8261C21.2678 11.8269 21.2678 11.8278 21.2678 11.8287C21.2678 11.8295 21.2678 11.8304 21.2678 11.8312C21.2678 11.8321 21.2678 11.833 21.2678 11.8338C21.2678 11.8347 21.2678 11.8355 21.2678 11.8364C21.2678 11.8372 21.2678 11.838 21.2678 11.8389C21.2678 11.8397 21.2678 11.8406 21.2678 11.8414C21.2678 11.8422 21.2678 11.843 21.2678 11.8439C21.2678 11.8447 21.2678 11.8455 21.2678 11.8463C21.2678 11.8471 21.2678 11.8479 21.2678 11.8488C21.2678 11.8496 21.2678 11.8504 21.2678 11.8512C21.2678 11.852 21.2678 11.8528 21.2678 11.8536C21.2678 11.8544 21.2678 11.8551 21.2678 11.8559C21.2678 11.8567 21.2678 11.8575 21.2678 11.8583C21.2678 11.8591 21.2678 11.8598 21.2678 11.8606C21.2678 11.8614 21.2678 11.8622 21.2678 11.8629C21.2678 11.8637 21.2678 11.8645 21.2678 11.8652C21.2678 11.866 21.2678 11.8667 21.2678 11.8675C21.2678 11.8682 21.2678 11.869 21.2678 11.8697C21.2678 11.8705 21.2678 11.8712 21.2678 11.8719C21.2678 11.8727 21.2678 11.8734 21.2678 11.8741C21.2678 11.8749 21.2678 11.8756 21.2678 11.8763C21.2678 11.8771 21.2678 11.8778 21.2678 11.8785C21.2678 11.8792 21.2678 11.8799 21.2678 11.8806C21.2678 11.8813 21.2678 11.882 21.2678 11.8827C21.2678 11.8834 21.2678 11.8841 21.2678 11.8848C21.2678 11.8855 21.2678 11.8862 21.2678 11.8869C21.2678 11.8876 21.2678 11.8883 21.2678 11.889C21.2678 11.8897 21.2678 11.8903 21.2678 11.891C21.2678 11.8917 21.2678 11.8923 21.2678 11.893C21.2678 11.8937 21.2678 11.8943 21.2678 11.895C21.2678 11.8957 21.2678 11.8963 21.2678 11.897C21.2678 11.8976 21.2678 11.8983 21.2678 11.8989C21.2678 11.8996 21.2678 11.9002 21.2678 11.9009C21.2678 11.9015 21.2678 11.9021 21.2678 11.9028C21.2678 11.9034 21.2678 11.904 21.2678 11.9046C21.2678 11.9053 21.2678 11.9059 21.2678 11.9065C21.2678 11.9071 21.2678 11.9077 21.2678 11.9084C21.2678 11.909 21.2678 11.9096 21.2678 11.9102C21.2678 11.9108 21.2678 11.9114 21.2678 11.912C21.2678 11.9126 21.2678 11.9132 21.2678 11.9138C21.2678 11.9144 21.2678 11.9149 21.2678 11.9155C21.2678 11.9161 21.2678 11.9167 21.2678 11.9173C21.2678 11.9178 21.2678 11.9184 21.2678 11.919C21.2678 11.9196 21.2678 11.9201 21.2678 11.9207H22.7678C22.7678 11.9201 22.7678 11.9196 22.7678 11.919C22.7678 11.9184 22.7678 11.9178 22.7678 11.9173C22.7678 11.9167 22.7678 11.9161 22.7678 11.9155C22.7678 11.9149 22.7678 11.9144 22.7678 11.9138C22.7678 11.9132 22.7678 11.9126 22.7678 11.912C22.7678 11.9114 22.7678 11.9108 22.7678 11.9102C22.7678 11.9096 22.7678 11.909 22.7678 11.9084C22.7678 11.9077 22.7678 11.9071 22.7678 11.9065C22.7678 11.9059 22.7678 11.9053 22.7678 11.9046C22.7678 11.904 22.7678 11.9034 22.7678 11.9028C22.7678 11.9021 22.7678 11.9015 22.7678 11.9009C22.7678 11.9002 22.7678 11.8996 22.7678 11.8989C22.7678 11.8983 22.7678 11.8976 22.7678 11.897C22.7678 11.8963 22.7678 11.8957 22.7678 11.895C22.7678 11.8943 22.7678 11.8937 22.7678 11.893C22.7678 11.8923 22.7678 11.8917 22.7678 11.891C22.7678 11.8903 22.7678 11.8897 22.7678 11.889C22.7678 11.8883 22.7678 11.8876 22.7678 11.8869C22.7678 11.8862 22.7678 11.8855 22.7678 11.8848C22.7678 11.8841 22.7678 11.8834 22.7678 11.8827C22.7678 11.882 22.7678 11.8813 22.7678 11.8806C22.7678 11.8799 22.7678 11.8792 22.7678 11.8785C22.7678 11.8778 22.7678 11.8771 22.7678 11.8763C22.7678 11.8756 22.7678 11.8749 22.7678 11.8741C22.7678 11.8734 22.7678 11.8727 22.7678 11.8719C22.7678 11.8712 22.7678 11.8705 22.7678 11.8697C22.7678 11.869 22.7678 11.8682 22.7678 11.8675C22.7678 11.8667 22.7678 11.866 22.7678 11.8652C22.7678 11.8645 22.7678 11.8637 22.7678 11.8629C22.7678 11.8622 22.7678 11.8614 22.7678 11.8606C22.7678 11.8598 22.7678 11.8591 22.7678 11.8583C22.7678 11.8575 22.7678 11.8567 22.7678 11.8559C22.7678 11.8551 22.7678 11.8544 22.7678 11.8536C22.7678 11.8528 22.7678 11.852 22.7678 11.8512C22.7678 11.8504 22.7678 11.8496 22.7678 11.8488C22.7678 11.8479 22.7678 11.8471 22.7678 11.8463C22.7678 11.8455 22.7678 11.8447 22.7678 11.8439C22.7678 11.843 22.7678 11.8422 22.7678 11.8414C22.7678 11.8406 22.7678 11.8397 22.7678 11.8389C22.7678 11.838 22.7678 11.8372 22.7678 11.8364C22.7678 11.8355 22.7678 11.8347 22.7678 11.8338C22.7678 11.833 22.7678 11.8321 22.7678 11.8312C22.7678 11.8304 22.7678 11.8295 22.7678 11.8287C22.7678 11.8278 22.7678 11.8269 22.7678 11.8261C22.7678 11.8252 22.7678 11.8243 22.7678 11.8234C22.7678 11.8225 22.7678 11.8217 22.7678 11.8208C22.7678 11.8199 22.7678 11.819 22.7678 11.8181C22.7678 11.8172 22.7678 11.8163 22.7678 11.8154C22.7678 11.8145 22.7678 11.8136 22.7678 11.8127C22.7678 11.8118 22.7678 11.8109 22.7678 11.81C22.7678 11.809 22.7678 11.8081 22.7678 11.8072C22.7678 11.8063 22.7678 11.8053 22.7678 11.8044C22.7678 11.8035 22.7678 11.8026 22.7678 11.8016C22.7678 11.8007 22.7678 11.7997 22.7678 11.7988C22.7678 11.7978 22.7678 11.7969 22.7678 11.7959C22.7678 11.795 22.7678 11.794 22.7678 11.7931C22.7678 11.7921 22.7678 11.7912 22.7678 11.7902C22.7678 11.7892 22.7678 11.7882 22.7678 11.7873C22.7678 11.7863 22.7678 11.7853 22.7678 11.7843C22.7678 11.7834 22.7678 11.7824 22.7678 11.7814C22.7678 11.7804 22.7678 11.7794 22.7678 11.7784C22.7678 11.7774 22.7678 11.7764 22.7678 11.7754C22.7678 11.7744 22.7678 11.7734 22.7678 11.7724C22.7678 11.7714 22.7678 11.7704 22.7678 11.7694C22.7678 11.7683 22.7678 11.7673 22.7678 11.7663C22.7678 11.7653 22.7678 11.7642 22.7678 11.7632C22.7678 11.7622 22.7678 11.7611 22.7678 11.7601C22.7678 11.7591 22.7678 11.758 22.7678 11.757C22.7678 11.7559 22.7678 11.7549 22.7678 11.7538C22.7678 11.7528 22.7678 11.7517 22.7678 11.7506C22.7678 11.7496 22.7678 11.7485 22.7678 11.7474C22.7678 11.7464 22.7678 11.7453 22.7678 11.7442C22.7678 11.7432 22.7678 11.7421 22.7678 11.741C22.7678 11.7399 22.7678 11.7388 22.7678 11.7377C22.7678 11.7366 22.7678 11.7355 22.7678 11.7345C22.7678 11.7334 22.7678 11.7323 22.7678 11.7311C22.7678 11.73 22.7678 11.7289 22.7678 11.7278C22.7678 11.7267 22.7678 11.7256 22.7678 11.7245C22.7678 11.7233 22.7678 11.7222 22.7678 11.7211C22.7678 11.72 22.7678 11.7188 22.7678 11.7177C22.7678 11.7166 22.7678 11.7154 22.7678 11.7143C22.7678 11.7131 22.7678 11.712 22.7678 11.7109C22.7678 11.7097 22.7678 11.7085 22.7678 11.7074C22.7678 11.7062 22.7678 11.7051 22.7678 11.7039C22.7678 11.7027 22.7678 11.7016 22.7678 11.7004C22.7678 11.6992 22.7678 11.6981 22.7678 11.6969C22.7678 11.6957 22.7678 11.6945 22.7678 11.6933C22.7678 11.6921 22.7678 11.691 22.7678 11.6898C22.7678 11.6886 22.7678 11.6874 22.7678 11.6862C22.7678 11.685 22.7678 11.6838 22.7678 11.6826C22.7678 11.6813 22.7678 11.6801 22.7678 11.6789C22.7678 11.6777 22.7678 11.6765 22.7678 11.6753C22.7678 11.674 22.7678 11.6728 22.7678 11.6716C22.7678 11.6703 22.7678 11.6691 22.7678 11.6679C22.7678 11.6666 22.7678 11.6654 22.7678 11.6641C22.7678 11.6629 22.7678 11.6616 22.7678 11.6604C22.7678 11.6591 22.7678 11.6579 22.7678 11.6566C22.7678 11.6554 22.7678 11.6541 22.7678 11.6528C22.7678 11.6516 22.7678 11.6503 22.7678 11.649C22.7678 11.6477 22.7678 11.6465 22.7678 11.6452C22.7678 11.6439 22.7678 11.6426 22.7678 11.6413C22.7678 11.64 22.7678 11.6387 22.7678 11.6374C22.7678 11.6361 22.7678 11.6348 22.7678 11.6335C22.7678 11.6322 22.7678 11.6309 22.7678 11.6296C22.7678 11.6283 22.7678 11.627 22.7678 11.6256C22.7678 11.6243 22.7678 11.623 22.7678 11.6217C22.7678 11.6203 22.7678 11.619 22.7678 11.6177C22.7678 11.6163 22.7678 11.615 22.7678 11.6136C22.7678 11.6123 22.7678 11.611 22.7678 11.6096C22.7678 11.6083 22.7678 11.6069 22.7678 11.6055C22.7678 11.6042 22.7678 11.6028 22.7678 11.6015C22.7678 11.6001 22.7678 11.5987 22.7678 11.5973C22.7678 11.596 22.7678 11.5946 22.7678 11.5932C22.7678 11.5918 22.7678 11.5904 22.7678 11.5891C22.7678 11.5877 22.7678 11.5863 22.7678 11.5849C22.7678 11.5835 22.7678 11.5821 22.7678 11.5807C22.7678 11.5793 22.7678 11.5779 22.7678 11.5765C22.7678 11.575 22.7678 11.5736 22.7678 11.5722C22.7678 11.5708 22.7678 11.5694 22.7678 11.5679C22.7678 11.5665 22.7678 11.5651 22.7678 11.5636C22.7678 11.5622 22.7678 11.5608 22.7678 11.5593C22.7678 11.5579 22.7678 11.5564 22.7678 11.555C22.7678 11.5535 22.7678 11.5521 22.7678 11.5506C22.7678 11.5492 22.7678 11.5477 22.7678 11.5463C22.7678 11.5448 22.7678 11.5433 22.7678 11.5418C22.7678 11.5404 22.7678 11.5389 22.7678 11.5374C22.7678 11.5359 22.7678 11.5345 22.7678 11.533C22.7678 11.5315 22.7678 11.53 22.7678 11.5285C22.7678 11.527 22.7678 11.5255 22.7678 11.524C22.7678 11.5225 22.7678 11.521 22.7678 11.5195C22.7678 11.518 22.7678 11.5164 22.7678 11.5149C22.7678 11.5134 22.7678 11.5119 22.7678 11.5104C22.7678 11.5088 22.7678 11.5073 22.7678 11.5058C22.7678 11.5042 22.7678 11.5027 22.7678 11.5012C22.7678 11.4996 22.7678 11.4981 22.7678 11.4965C22.7678 11.495 22.7678 11.4934 22.7678 11.4919C22.7678 11.4903 22.7678 11.4888 22.7678 11.4872C22.7678 11.4856 22.7678 11.4841 22.7678 11.4825C22.7678 11.4809 22.7678 11.4793 22.7678 11.4778C22.7678 11.4762 22.7678 11.4746 22.7678 11.473C22.7678 11.4714 22.7678 11.4698 22.7678 11.4682C22.7678 11.4666 22.7678 11.465 22.7678 11.4634C22.7678 11.4618 22.7678 11.4602 22.7678 11.4586C22.7678 11.457 22.7678 11.4554 22.7678 11.4538C22.7678 11.4522 22.7678 11.4505 22.7678 11.4489C22.7678 11.4473 22.7678 11.4456 22.7678 11.444C22.7678 11.4424 22.7678 11.4407 22.7678 11.4391C22.7678 11.4375 22.7678 11.4358 22.7678 11.4342C22.7678 11.4325 22.7678 11.4309 22.7678 11.4292C22.7678 11.4275 22.7678 11.4259 22.7678 11.4242C22.7678 11.4226 22.7678 11.4209 22.7678 11.4192C22.7678 11.4175 22.7678 11.4159 22.7678 11.4142C22.7678 11.4125 22.7678 11.4108 22.7678 11.4091C22.7678 11.4074 22.7678 11.4058 22.7678 11.4041C22.7678 11.4024 22.7678 11.4007 22.7678 11.399C22.7678 11.3973 22.7678 11.3955 22.7678 11.3938C22.7678 11.3921 22.7678 11.3904 22.7678 11.3887C22.7678 11.387 22.7678 11.3852 22.7678 11.3835C22.7678 11.3818 22.7678 11.3801 22.7678 11.3783C22.7678 11.3766 22.7678 11.3749 22.7678 11.3731C22.7678 11.3714 22.7678 11.3696 22.7678 11.3679C22.7678 11.3661 22.7678 11.3644 22.7678 11.3626C22.7678 11.3608 22.7678 11.3591 22.7678 11.3573C22.7678 11.3556 22.7678 11.3538 22.7678 11.352C22.7678 11.3502 22.7678 11.3485 22.7678 11.3467C22.7678 11.3449 22.7678 11.3431 22.7678 11.3413C22.7678 11.3395 22.7678 11.3377 22.7678 11.3359C22.7678 11.3341 22.7678 11.3323 22.7678 11.3305C22.7678 11.3287 22.7678 11.3269 22.7678 11.3251C22.7678 11.3233 22.7678 11.3215 22.7678 11.3196C22.7678 11.3178 22.7678 11.316 22.7678 11.3142C22.7678 11.3123 22.7678 11.3105 22.7678 11.3087C22.7678 11.3068 22.7678 11.305 22.7678 11.3031C22.7678 11.3013 22.7678 11.2995 22.7678 11.2976C22.7678 11.2957 22.7678 11.2939 22.7678 11.292C22.7678 11.2902 22.7678 11.2883 22.7678 11.2864C22.7678 11.2846 22.7678 11.2827 22.7678 11.2808C22.7678 11.2789 22.7678 11.2771 22.7678 11.2752C22.7678 11.2733 22.7678 11.2714 22.7678 11.2695C22.7678 11.2676 22.7678 11.2657 22.7678 11.2638C22.7678 11.2619 22.7678 11.26 22.7678 11.2581C22.7678 11.2562 22.7678 11.2543 22.7678 11.2524C22.7678 11.2505 22.7678 11.2485 22.7678 11.2466C22.7678 11.2447 22.7678 11.2428 22.7678 11.2408C22.7678 11.2389 22.7678 11.237 22.7678 11.235C22.7678 11.2331 22.7678 11.2311 22.7678 11.2292C22.7678 11.2272 22.7678 11.2253 22.7678 11.2233C22.7678 11.2214 22.7678 11.2194 22.7678 11.2175C22.7678 11.2155 22.7678 11.2135 22.7678 11.2115C22.7678 11.2096 22.7678 11.2076 22.7678 11.2056C22.7678 11.2036 22.7678 11.2017 22.7678 11.1997C22.7678 11.1977 22.7678 11.1957 22.7678 11.1937C22.7678 11.1917 22.7678 11.1897 22.7678 11.1877C22.7678 11.1857 22.7678 11.1837 22.7678 11.1817C22.7678 11.1797 22.7678 11.1776 22.7678 11.1756C22.7678 11.1736 22.7678 11.1716 22.7678 11.1695C22.7678 11.1675 22.7678 11.1655 22.7678 11.1635C22.7678 11.1614 22.7678 11.1594 22.7678 11.1573C22.7678 11.1553 22.7678 11.1532 22.7678 11.1512C22.7678 11.1491 22.7678 11.1471 22.7678 11.145C22.7678 11.143 22.7678 11.1409 22.7678 11.1388C22.7678 11.1368 22.7678 11.1347 22.7678 11.1326C22.7678 11.1305 22.7678 11.1285 22.7678 11.1264C22.7678 11.1243 22.7678 11.1222 22.7678 11.1201C22.7678 11.118 22.7678 11.1159 22.7678 11.1138C22.7678 11.1117 22.7678 11.1096 22.7678 11.1075C22.7678 11.1054 22.7678 11.1033 22.7678 11.1012C22.7678 11.099 22.7678 11.0969 22.7678 11.0948C22.7678 11.0927 22.7678 11.0905 22.7678 11.0884C22.7678 11.0863 22.7678 11.0841 22.7678 11.082C22.7678 11.0799 22.7678 11.0777 22.7678 11.0756C22.7678 11.0734 22.7678 11.0713 22.7678 11.0691C22.7678 11.0669 22.7678 11.0648 22.7678 11.0626C22.7678 11.0605 22.7678 11.0583 22.7678 11.0561C22.7678 11.0539 22.7678 11.0518 22.7678 11.0496C22.7678 11.0474 22.7678 11.0452 22.7678 11.043C22.7678 11.0408 22.7678 11.0386 22.7678 11.0364C22.7678 11.0342 22.7678 11.032 22.7678 11.0298C22.7678 11.0276 22.7678 11.0254 22.7678 11.0232C22.7678 11.021 22.7678 11.0188 22.7678 11.0166C22.7678 11.0143 22.7678 11.0121 22.7678 11.0099C22.7678 11.0076 22.7678 11.0054 22.7678 11.0032C22.7678 11.0009 22.7678 10.9987 22.7678 10.9964C22.7678 10.9942 22.7678 10.9919 22.7678 10.9897C22.7678 10.9874 22.7678 10.9852 22.7678 10.9829C22.7678 10.9806 22.7678 10.9784 22.7678 10.9761C22.7678 10.9738 22.7678 10.9716 22.7678 10.9693C22.7678 10.967 22.7678 10.9647 22.7678 10.9624C22.7678 10.9601 22.7678 10.9579 22.7678 10.9556C22.7678 10.9533 22.7678 10.951 22.7678 10.9487C22.7678 10.9464 22.7678 10.944 22.7678 10.9417C22.7678 10.9394 22.7678 10.9371 22.7678 10.9348C22.7678 10.9325 22.7678 10.9301 22.7678 10.9278C22.7678 10.9255 22.7678 10.9231 22.7678 10.9208C22.7678 10.9185 22.7678 10.9161 22.7678 10.9138C22.7678 10.9114 22.7678 10.9091 22.7678 10.9067C22.7678 10.9044 22.7678 10.902 22.7678 10.8997C22.7678 10.8973 22.7678 10.8949 22.7678 10.8926C22.7678 10.8902 22.7678 10.8878 22.7678 10.8854C22.7678 10.8831 22.7678 10.8807 22.7678 10.8783C22.7678 10.8759 22.7678 10.8735 22.7678 10.8711C22.7678 10.8687 22.7678 10.8663 22.7678 10.8639C22.7678 10.8615 22.7678 10.8591 22.7678 10.8567C22.7678 10.8543 22.7678 10.8519 22.7678 10.8495C22.7678 10.847 22.7678 10.8446 22.7678 10.8422C22.7678 10.8398 22.7678 10.8373 22.7678 10.8349C22.7678 10.8325 22.7678 10.83 22.7678 10.8276C22.7678 10.8251 22.7678 10.8227 22.7678 10.8202C22.7678 10.8178 22.7678 10.8153 22.7678 10.8128C22.7678 10.8104 22.7678 10.8079 22.7678 10.8055C22.7678 10.803 22.7678 10.8005 22.7678 10.798C22.7678 10.7956 22.7678 10.7931 22.7678 10.7906C22.7678 10.7881 22.7678 10.7856 22.7678 10.7831C22.7678 10.7806 22.7678 10.7781 22.7678 10.7756C22.7678 10.7731 22.7678 10.7706 22.7678 10.7681C22.7678 10.7656 22.7678 10.7631 22.7678 10.7606C22.7678 10.758 22.7678 10.7555 22.7678 10.753C22.7678 10.7505 22.7678 10.7479 22.7678 10.7454C22.7678 10.7428 22.7678 10.7403 22.7678 10.7378C22.7678 10.7352 22.7678 10.7327 22.7678 10.7301C22.7678 10.7276 22.7678 10.725 22.7678 10.7224C22.7678 10.7199 22.7678 10.7173 22.7678 10.7147C22.7678 10.7122 22.7678 10.7096 22.7678 10.707C22.7678 10.7044 22.7678 10.7019 22.7678 10.6993C22.7678 10.6967 22.7678 10.6941 22.7678 10.6915C22.7678 10.6889 22.7678 10.6863 22.7678 10.6837C22.7678 10.6811 22.7678 10.6785 22.7678 10.6759C22.7678 10.6733 22.7678 10.6707 22.7678 10.668C22.7678 10.6654 22.7678 10.6628 22.7678 10.6602C22.7678 10.6575 22.7678 10.6549 22.7678 10.6523C22.7678 10.6496 22.7678 10.647 22.7678 10.6443C22.7678 10.6417 22.7678 10.639 22.7678 10.6364C22.7678 10.6337 22.7678 10.6311 22.7678 10.6284C22.7678 10.6257 22.7678 10.6231 22.7678 10.6204C22.7678 10.6177 22.7678 10.6151 22.7678 10.6124C22.7678 10.6097 22.7678 10.607 22.7678 10.6043C22.7678 10.6016 22.7678 10.599 22.7678 10.5963C22.7678 10.5936 22.7678 10.5909 22.7678 10.5882C22.7678 10.5854 22.7678 10.5827 22.7678 10.58C22.7678 10.5773 22.7678 10.5746 22.7678 10.5719C22.7678 10.5691 22.7678 10.5664 22.7678 10.5637C22.7678 10.561 22.7678 10.5582 22.7678 10.5555C22.7678 10.5527 22.7678 10.55 22.7678 10.5473C22.7678 10.5445 22.7678 10.5418 22.7678 10.539C22.7678 10.5362 22.7678 10.5335 22.7678 10.5307C22.7678 10.528 22.7678 10.5252 22.7678 10.5224C22.7678 10.5196 22.7678 10.5169 22.7678 10.5141C22.7678 10.5113 22.7678 10.5085 22.7678 10.5057C22.7678 10.5029 22.7678 10.5001 22.7678 10.4973C22.7678 10.4945 22.7678 10.4917 22.7678 10.4889C22.7678 10.4861 22.7678 10.4833 22.7678 10.4805C22.7678 10.4777 22.7678 10.4749 22.7678 10.472C22.7678 10.4692 22.7678 10.4664 22.7678 10.4636C22.7678 10.4607 22.7678 10.4579 22.7678 10.455C22.7678 10.4522 22.7678 10.4494 22.7678 10.4465C22.7678 10.4437 22.7678 10.4408 22.7678 10.4379C22.7678 10.4351 22.7678 10.4322 22.7678 10.4294C22.7678 10.4265 22.7678 10.4236 22.7678 10.4207C22.7678 10.4179 22.7678 10.415 22.7678 10.4121C22.7678 10.4092 22.7678 10.4063 22.7678 10.4034C22.7678 10.4005 22.7678 10.3976 22.7678 10.3947C22.7678 10.3918 22.7678 10.3889 22.7678 10.386C22.7678 10.3831 22.7678 10.3802 22.7678 10.3773C22.7678 10.3744 22.7678 10.3714 22.7678 10.3685C22.7678 10.3656 22.7678 10.3627 22.7678 10.3597C22.7678 10.3568 22.7678 10.3538 22.7678 10.3509C22.7678 10.3479 22.7678 10.345 22.7678 10.342C22.7678 10.3391 22.7678 10.3361 22.7678 10.3332C22.7678 10.3302 22.7678 10.3272 22.7678 10.3243C22.7678 10.3213 22.7678 10.3183 22.7678 10.3153C22.7678 10.3124 22.7678 10.3094 22.7678 10.3064C22.7678 10.3034 22.7678 10.3004 22.7678 10.2974C22.7678 10.2944 22.7678 10.2914 22.7678 10.2884C22.7678 10.2854 22.7678 10.2824 22.7678 10.2794C22.7678 10.2764 22.7678 10.2734 22.7678 10.2703C22.7678 10.2673 22.7678 10.2643 22.7678 10.2613C22.7678 10.2582 22.7678 10.2552 22.7678 10.2521C22.7678 10.2491 22.7678 10.2461 22.7678 10.243C22.7678 10.24 22.7678 10.2369 22.7678 10.2339C22.7678 10.2308 22.7678 10.2277 22.7678 10.2247C22.7678 10.2216 22.7678 10.2185 22.7678 10.2155C22.7678 10.2124 22.7678 10.2093 22.7678 10.2062C22.7678 10.2031 22.7678 10.2 22.7678 10.197C22.7678 10.1939 22.7678 10.1908 22.7678 10.1877C22.7678 10.1846 22.7678 10.1815 22.7678 10.1783C22.7678 10.1752 22.7678 10.1721 22.7678 10.169C22.7678 10.1659 22.7678 10.1628 22.7678 10.1596C22.7678 10.1565 22.7678 10.1534 22.7678 10.1502C22.7678 10.1471 22.7678 10.144 22.7678 10.1408C22.7678 10.1377 22.7678 10.1345 22.7678 10.1314C22.7678 10.1282 22.7678 10.1251 22.7678 10.1219C22.7678 10.1187 22.7678 10.1156 22.7678 10.1124C22.7678 10.1092 22.7678 10.106 22.7678 10.1029C22.7678 10.0997 22.7678 10.0965 22.7678 10.0933C22.7678 10.0901 22.7678 10.0869 22.7678 10.0837C22.7678 10.0805 22.7678 10.0773 22.7678 10.0741C22.7678 10.0709 22.7678 10.0677 22.7678 10.0645C22.7678 10.0613 22.7678 10.0581 22.7678 10.0548C22.7678 10.0516 22.7678 10.0484 22.7678 10.0451C22.7678 10.0419 22.7678 10.0387 22.7678 10.0354C22.7678 10.0322 22.7678 10.0289 22.7678 10.0257C22.7678 10.0224 22.7678 10.0192 22.7678 10.0159C22.7678 10.0127 22.7678 10.0094 22.7678 10.0061C22.7678 10.0029 22.7678 9.9996 22.7678 9.99632C22.7678 9.99305 22.7678 9.98976 22.7678 9.98648C22.7678 9.98319 22.7678 9.9799 22.7678 9.97661C22.7678 9.97331 22.7678 9.97001 22.7678 9.96671C22.7678 9.9634 22.7678 9.9601 22.7678 9.95678C22.7678 9.95347 22.7678 9.95015 22.7678 9.94683C22.7678 9.94351 22.7678 9.94019 22.7678 9.93686C22.7678 9.93352 22.7678 9.93019 22.7678 9.92685C22.7678 9.92351 22.7678 9.92017 22.7678 9.91682C22.7678 9.91347 22.7678 9.91012 22.7678 9.90676C22.7678 9.9034 22.7678 9.90004 22.7678 9.89668C22.7678 9.89331 22.7678 9.88994 22.7678 9.88657C22.7678 9.88319 22.7678 9.87981 22.7678 9.87643C22.7678 9.87304 22.7678 9.86966 22.7678 9.86626C22.7678 9.86287 22.7678 9.85947 22.7678 9.85607C22.7678 9.85267 22.7678 9.84926 22.7678 9.84585C22.7678 9.84244 22.7678 9.83903 22.7678 9.83561C22.7678 9.83219 22.7678 9.82876 22.7678 9.82534C22.7678 9.82191 22.7678 9.81847 22.7678 9.81504C22.7678 9.8116 22.7678 9.80816 22.7678 9.80471C22.7678 9.80126 22.7678 9.79781 22.7678 9.79436C22.7678 9.7909 22.7678 9.78744 22.7678 9.78398C22.7678 9.78051 22.7678 9.77705 22.7678 9.77357C22.7678 9.7701 22.7678 9.76662 22.7678 9.76314C22.7678 9.75966 22.7678 9.75617 22.7678 9.75268C22.7678 9.74919 22.7678 9.74569 22.7678 9.74219C22.7678 9.73869 22.7678 9.73519 22.7678 9.73168C22.7678 9.72817 22.7678 9.72465 22.7678 9.72114C22.7678 9.71762 22.7678 9.7141 22.7678 9.71057C22.7678 9.70704 22.7678 9.70351 22.7678 9.69997C22.7678 9.69644 22.7678 9.6929 22.7678 9.68935C22.7678 9.68581 22.7678 9.68226 22.7678 9.6787C22.7678 9.67515 22.7678 9.67159 22.7678 9.66802C22.7678 9.66446 22.7678 9.66089 22.7678 9.65732C22.7678 9.65375 22.7678 9.65017 22.7678 9.64659C22.7678 9.64301 22.7678 9.63942 22.7678 9.63583C22.7678 9.63224 22.7678 9.62865 22.7678 9.62505C22.7678 9.62145 22.7678 9.61784 22.7678 9.61424C22.7678 9.61063 22.7678 9.60701 22.7678 9.6034C22.7678 9.59978 22.7678 9.59616 22.7678 9.59253C22.7678 9.5889 22.7678 9.58527 22.7678 9.58164C22.7678 9.578 22.7678 9.57436 22.7678 9.57071C22.7678 9.56707 22.7678 9.56342 22.7678 9.55977C22.7678 9.55611 22.7678 9.55245 22.7678 9.54879C22.7678 9.54513 22.7678 9.54146 22.7678 9.53779C22.7678 9.53412 22.7678 9.53044 22.7678 9.52676C22.7678 9.52308 22.7678 9.51939 22.7678 9.5157C22.7678 9.51201 22.7678 9.50832 22.7678 9.50462C22.7678 9.50092 22.7678 9.49721 22.7678 9.4935C22.7678 9.4898 22.7678 9.48608 22.7678 9.48236C22.7678 9.47865 22.7678 9.47492 22.7678 9.4712C22.7678 9.46747 22.7678 9.46374 22.7678 9.46C22.7678 9.45627 22.7678 9.45253 22.7678 9.44878C22.7678 9.44504 22.7678 9.44129 22.7678 9.43753C22.7678 9.43378 22.7678 9.43002 22.7678 9.42626C22.7678 9.42249 22.7678 9.41872 22.7678 9.41495C22.7678 9.41118 22.7678 9.4074 22.7678 9.40362C22.7678 9.39984 22.7678 9.39605 22.7678 9.39226C22.7678 9.38847 22.7678 9.38468 22.7678 9.38088C22.7678 9.37707 22.7678 9.37327 22.7678 9.36946C22.7678 9.36565 22.7678 9.36184 22.7678 9.35802C22.7678 9.3542 22.7678 9.35038 22.7678 9.34655C22.7678 9.34272 22.7678 9.33889 22.7678 9.33505C22.7678 9.33122 22.7678 9.32737 22.7678 9.32353C22.7678 9.31968 22.7678 9.31583 22.7678 9.31198C22.7678 9.30812 22.7678 9.30426 22.7678 9.3004C22.7678 9.29653 22.7678 9.29266 22.7678 9.28879C22.7678 9.28492 22.7678 9.28104 22.7678 9.27715C22.7678 9.27327 22.7678 9.26938 22.7678 9.26549C22.7678 9.2616 22.7678 9.2577 22.7678 9.2538C22.7678 9.2499 22.7678 9.24599 22.7678 9.24208C22.7678 9.23817 22.7678 9.23426 22.7678 9.23034C22.7678 9.22642 22.7678 9.22249 22.7678 9.21856C22.7678 9.21464 22.7678 9.2107 22.7678 9.20676C22.7678 9.20283 22.7678 9.19888 22.7678 9.19493C22.7678 9.19099 22.7678 9.18703 22.7678 9.18308C22.7678 9.17912 22.7678 9.17516 22.7678 9.17119C22.7678 9.16723 22.7678 9.16326 22.7678 9.15928C22.7678 9.1553 22.7678 9.15132 22.7678 9.14734C22.7678 9.14335 22.7678 9.13937 22.7678 9.13537C22.7678 9.13138 22.7678 9.12738 22.7678 9.12337C22.7678 9.11937 22.7678 9.11536 22.7678 9.11135C22.7678 9.10734 22.7678 9.10332 22.7678 9.0993C22.7678 9.09528 22.7678 9.09125 22.7678 9.08722C22.7678 9.08319 22.7678 9.07915 22.7678 9.07511C22.7678 9.07107 22.7678 9.06702 22.7678 9.06297C22.7678 9.05893 22.7678 9.05487 22.7678 9.05081C22.7678 9.04675 22.7678 9.04269 22.7678 9.03862C22.7678 9.03455 22.7678 9.03048 22.7678 9.0264C22.7678 9.02232 22.7678 9.01824 22.7678 9.01415C22.7678 9.01006 22.7678 9.00597 22.7678 9.00188C22.7678 8.99778 22.7678 8.99368 22.7678 8.98957C22.7678 8.98547 22.7678 8.98135 22.7678 8.97724C22.7678 8.97312 22.7678 8.969 22.7678 8.96488C22.7678 8.96075 22.7678 8.95662 22.7678 8.95249C22.7678 8.94836 22.7678 8.94422 22.7678 8.94007C22.7678 8.93593 22.7678 8.93178 22.7678 8.92763C22.7678 8.92348 22.7678 8.91932 22.7678 8.91516C22.7678 8.91099 22.7678 8.90683 22.7678 8.90266C22.7678 8.89848 22.7678 8.89431 22.7678 8.89013C22.7678 8.88594 22.7678 8.88176 22.7678 8.87757C22.7678 8.87338 22.7678 8.86918 22.7678 8.86498C22.7678 8.86078 22.7678 8.85658 22.7678 8.85237C22.7678 8.84816 22.7678 8.84395 22.7678 8.83973C22.7678 8.83551 22.7678 8.83128 22.7678 8.82706C22.7678 8.82283 22.7678 8.81859 22.7678 8.81436C22.7678 8.81012 22.7678 8.80588 22.7678 8.80163C22.7678 8.79738 22.7678 8.79313 22.7678 8.78887C22.7678 8.78462 22.7678 8.78036 22.7678 8.77609C22.7678 8.77182 22.7678 8.76755 22.7678 8.76328C22.7678 8.759 22.7678 8.75472 22.7678 8.75044C22.7678 8.74615 22.7678 8.74186 22.7678 8.73757C22.7678 8.73327 22.7678 8.72897 22.7678 8.72467C22.7678 8.72037 22.7678 8.71606 22.7678 8.71174C22.7678 8.70743 22.7678 8.70311 22.7678 8.69879C22.7678 8.69447 22.7678 8.69014 22.7678 8.68581C22.7678 8.68147 22.7678 8.67714 22.7678 8.6728C22.7678 8.66845 22.7678 8.66411 22.7678 8.65976C22.7678 8.6554 22.7678 8.65105 22.7678 8.64669C22.7678 8.64233 22.7678 8.63796 22.7678 8.63359C22.7678 8.62922 22.7678 8.62485 22.7678 8.62046C22.7678 8.61609 22.7678 8.6117 22.7678 8.60731C22.7678 8.60292 22.7678 8.59853 22.7678 8.59413C22.7678 8.58973 22.7678 8.58533 22.7678 8.58092C22.7678 8.57651 22.7678 8.57209 22.7678 8.56768C22.7678 8.56326 22.7678 8.55884 22.7678 8.55441C22.7678 8.54998 22.7678 8.54555 22.7678 8.54111C22.7678 8.53667 22.7678 8.53223 22.7678 8.52779C22.7678 8.52334 22.7678 8.51889 22.7678 8.51443C22.7678 8.50997 22.7678 8.50551 22.7678 8.50105C22.7678 8.49658 22.7678 8.49211 22.7678 8.48764C22.7678 8.48316 22.7678 8.47868 22.7678 8.47419C22.7678 8.46971 22.7678 8.46522 22.7678 8.46072C22.7678 8.45623 22.7678 8.45173 22.7678 8.44723C22.7678 8.44272 22.7678 8.43821 22.7678 8.4337C22.7678 8.42919 22.7678 8.42467 22.7678 8.42014C22.7678 8.41562 22.7678 8.41109 22.7678 8.40656C22.7678 8.40203 22.7678 8.39749 22.7678 8.39294C22.7678 8.3884 22.7678 8.38385 22.7678 8.3793C22.7678 8.37475 22.7678 8.37019 22.7678 8.36563C22.7678 8.36107 22.7678 8.3565 22.7678 8.35193C22.7678 8.34736 22.7678 8.34278 22.7678 8.3382C22.7678 8.33362 22.7678 8.32903 22.7678 8.32444C22.7678 8.31985 22.7678 8.31526 22.7678 8.31066C22.7678 8.30606 22.7678 8.30145 22.7678 8.29684C22.7678 8.29223 22.7678 8.28762 22.7678 8.283C22.7678 8.27838 22.7678 8.27375 22.7678 8.26912C22.7678 8.26449 22.7678 8.25986 22.7678 8.25522C22.7678 8.25058 22.7678 8.24593 22.7678 8.24129C22.7678 8.23664 22.7678 8.23198 22.7678 8.22732C22.7678 8.22267 22.7678 8.218 22.7678 8.21334C22.7678 8.20867 22.7678 8.20399 22.7678 8.19932C22.7678 8.19464 22.7678 8.18995 22.7678 8.18527C22.7678 8.18058 22.7678 8.17589 22.7678 8.17119C22.7678 8.16649 22.7678 8.16179 22.7678 8.15708C22.7678 8.15238 22.7678 8.14766 22.7678 8.14295C22.7678 8.13823 22.7678 8.13351 22.7678 8.12878C22.7678 8.12406 22.7678 8.11932 22.7678 8.11459C22.7678 8.10985 22.7678 8.10511 22.7678 8.10037C22.7678 8.09562 22.7678 8.09087 22.7678 8.08611C22.7678 8.08136 22.7678 8.0766 22.7678 8.07183C22.7678 8.06707 22.7678 8.0623 22.7678 8.05752C22.7678 8.05274 22.7678 8.04796 22.7678 8.04318C22.7678 8.03839 22.7678 8.03361 22.7678 8.02881C22.7678 8.02402 22.7678 8.01922 22.7678 8.01441C22.7678 8.00961 22.7678 8.0048 22.7678 7.99998C22.7678 7.99517 22.7678 7.99035 22.7678 7.98553C22.7678 7.9807 22.7678 7.97587 22.7678 7.97104C22.7678 7.96621 22.7678 7.96137 22.7678 7.95652H21.2678ZM22.0178 11.1707H18.2486V12.6707H22.0178V11.1707Z" fill="#6BC909"/>
<path d="M13.8806 7.7771C13.7425 7.7771 13.6306 7.88903 13.6306 8.0271C13.6306 8.16517 13.7425 8.2771 13.8806 8.2771V7.7771ZM15.4657 8.2771C15.6038 8.2771 15.7157 8.16517 15.7157 8.0271C15.7157 7.88903 15.6038 7.7771 15.4657 7.7771V8.2771ZM13.8806 8.2771H15.4657V7.7771H13.8806V8.2771Z" fill="#6BC909"/>
<path d="M7.75629 14.5262C7.62987 14.5817 7.57239 14.7292 7.62791 14.8556C7.68342 14.9821 7.83091 15.0395 7.95733 14.984L7.75629 14.5262ZM16.0594 11.4262C16.1858 11.3706 16.2433 11.2232 16.1878 11.0967C16.1323 10.9703 15.9848 10.9128 15.8584 10.9684L16.0594 11.4262ZM7.95733 14.984L16.0594 11.4262L15.8584 10.9684L7.75629 14.5262L7.95733 14.984Z" fill="#6BC909"/>
<path d="M7.75629 18.0841C7.62987 18.1396 7.57239 18.2871 7.62791 18.4135C7.68342 18.5399 7.83091 18.5974 7.95733 18.5419L7.75629 18.0841ZM16.0594 14.984C16.1858 14.9285 16.2433 14.781 16.1878 14.6546C16.1323 14.5282 15.9848 14.4707 15.8584 14.5262L16.0594 14.984ZM7.95733 18.5419L16.0594 14.984L15.8584 14.5262L7.75629 18.0841L7.95733 18.5419Z" fill="#6BC909"/>
</svg>
