<svg width="48" height="49" viewBox="0 0 48 49" fill="none" xmlns="http://www.w3.org/2000/svg">
<path d="M24 37.2368C30.9036 37.2368 36.5 31.6404 36.5 24.7368C36.5 17.8333 30.9036 12.2368 24 12.2368C17.0964 12.2368 11.5 17.8333 11.5 24.7368C11.5 31.6404 17.0964 37.2368 24 37.2368Z" stroke="#6BC909" stroke-width="2" stroke-linecap="round" stroke-linejoin="round"/>
<path d="M20.3625 20.9868C20.6564 20.1514 21.2365 19.447 22 18.9982C22.7635 18.5495 23.6612 18.3855 24.534 18.5352C25.4069 18.6849 26.1986 19.1387 26.7689 19.8162C27.3392 20.4937 27.6514 21.3512 27.65 22.2368C27.65 24.7368 23.9 25.9868 23.9 25.9868V27.7368" stroke="#6BC909" stroke-width="2" stroke-linecap="round" stroke-linejoin="round"/>
<path d="M24 30.9868H24.0125" stroke="#6BC909" stroke-width="2" stroke-linecap="round" stroke-linejoin="round"/>
<path d="M12 1.73682H36V-0.263184H12V1.73682ZM47 12.7368V36.7368H49V12.7368H47ZM36 47.7368H12V49.7368H36V47.7368ZM1 36.7368V12.7368H-1V36.7368H1ZM12 47.7368C5.92487 47.7368 1 42.8119 1 36.7368H-1C-1 43.9165 4.8203 49.7368 12 49.7368V47.7368ZM47 36.7368C47 42.8119 42.0751 47.7368 36 47.7368V49.7368C43.1797 49.7368 49 43.9165 49 36.7368H47ZM36 1.73682C42.0751 1.73682 47 6.66168 47 12.7368H49C49 5.55712 43.1797 -0.263184 36 -0.263184V1.73682ZM12 -0.263184C4.8203 -0.263184 -1 5.55712 -1 12.7368H1C1 6.66168 5.92487 1.73682 12 1.73682V-0.263184Z" fill="#6BC909"/>
</svg>
