<svg width="60" height="61" viewBox="0 0 60 61" fill="none" xmlns="http://www.w3.org/2000/svg">
<path d="M45.625 21.0495C44.4505 21.559 43.2085 21.8959 41.9375 22.0495C43.2784 21.2485 44.2832 19.9882 44.7656 18.5026C43.5056 19.2527 42.1262 19.7812 40.6875 20.0651C39.7259 19.0223 38.4453 18.3281 37.0466 18.0915C35.6479 17.8548 34.2102 18.0891 32.959 18.7576C31.7079 19.4261 30.714 20.491 30.1332 21.7852C29.5524 23.0794 29.4176 24.5298 29.75 25.9089C27.2022 25.78 24.7101 25.1166 22.4354 23.9618C20.1607 22.807 18.1544 21.1865 16.5469 19.2058C15.983 20.1904 15.6867 21.3055 15.6875 22.4401C15.6855 23.4939 15.9441 24.5317 16.4402 25.4613C16.9364 26.3909 17.6547 27.1834 18.5312 27.7683C17.5125 27.7406 16.5154 27.4672 15.625 26.9714V27.0495C15.6326 28.5259 16.15 29.9544 17.0896 31.0932C18.0291 32.2321 19.3332 33.0115 20.7812 33.2995C20.2238 33.4692 19.6451 33.5586 19.0625 33.5651C18.6592 33.5604 18.2569 33.5239 17.8594 33.4558C18.2717 34.7258 19.0697 35.8357 20.1423 36.631C21.2149 37.4264 22.5087 37.8676 23.8438 37.8933C21.5894 39.6671 18.8061 40.6352 15.9375 40.6433C15.4152 40.645 14.8933 40.6137 14.375 40.5495C17.3038 42.4405 20.7169 43.4444 24.2031 43.4401C26.6089 43.4651 28.9955 43.0105 31.2236 42.1028C33.4517 41.1951 35.4766 39.8525 37.18 38.1534C38.8834 36.4544 40.2312 34.4329 41.1446 32.2072C42.058 29.9814 42.5188 27.596 42.5 25.1901C42.5 24.9245 42.5 24.6433 42.5 24.362C43.7261 23.4477 44.7836 22.3267 45.625 21.0495V21.0495Z" fill="#6BC909"/>
<path d="M12 1.73706H48V-0.262939H12V1.73706ZM59 12.7371V48.7371H61V12.7371H59ZM48 59.7371H12V61.7371H48V59.7371ZM1 48.7371V12.7371H-1V48.7371H1ZM12 59.7371C5.92487 59.7371 1 54.8122 1 48.7371H-1C-1 55.9168 4.8203 61.7371 12 61.7371V59.7371ZM59 48.7371C59 54.8122 54.0751 59.7371 48 59.7371V61.7371C55.1797 61.7371 61 55.9168 61 48.7371H59ZM48 1.73706C54.0751 1.73706 59 6.66193 59 12.7371H61C61 5.55736 55.1797 -0.262939 48 -0.262939V1.73706ZM12 -0.262939C4.8203 -0.262939 -1 5.55736 -1 12.7371H1C1 6.66193 5.92487 1.73706 12 1.73706V-0.262939Z" fill="#6BC909"/>
</svg>
