<?xml version="1.0" encoding="utf-8"?>
<!-- Generator: Adobe Illustrator 25.4.1, SVG Export Plug-In . SVG Version: 6.00 Build 0)  -->
<svg version="1.0" id="Layer_1" xmlns="http://www.w3.org/2000/svg" xmlns:xlink="http://www.w3.org/1999/xlink" x="0px" y="0px"
	 viewBox="0 0 24 24" style="enable-background:new 0 0 24 24;" xml:space="preserve">
<style type="text/css">
	.st0{fill-rule:evenodd;clip-rule:evenodd;fill:#ABACB5;}
</style>
<path class="st0" d="M13.07,14.37c0-0.72,0.59-1.31,1.31-1.31c0.72,0,1.31,0.59,1.31,1.31c0,0.72-0.59,1.31-1.31,1.31
	C13.66,15.68,13.07,15.09,13.07,14.37L13.07,14.37z"/>
<path class="st0" d="M21.11,9.39L21.11,9.39c0-3.94,0-3.94,0-3.94c0-0.33,0-0.33,0-0.33c0-1.64,0-1.64,0-1.64
	c0-1.15-0.82-1.97-1.96-1.97c-2.62,0-2.62,0-2.62,0c-10.8,0-10.8,0-10.8,0c-1.96,0-3.6,1.64-3.6,3.61c0,13.15,0,13.15,0,13.15
	c0,1.97,1.64,3.61,3.6,3.61c11.78,0,11.78,0,11.78,0c1.96,0,3.6-1.64,3.6-3.61c0-0.99,0-0.99,0-0.99l0,0
	C23.73,15.31,23.73,11.36,21.11,9.39L21.11,9.39z M5.73,2.82c10.8,0,10.8,0,10.8,0c2.62,0,2.62,0,2.62,0c0.33,0,0.66,0.33,0.66,0.66
	c0,1.64,0,1.64,0,1.64c0,0.33,0,0.33,0,0.33c0,2.14,0,2.14,0,2.14c-0.16-0.16-0.49-0.16-0.66-0.16l0,0c0-0.66,0-0.66,0-0.66
	c0-1.31,0-1.31,0-1.31c0-1.31,0-1.31,0-1.31c0-0.33-0.33-0.66-0.65-0.66c-13.75,0-13.75,0-13.75,0c-0.33,0-0.65,0.33-0.65,0.66
	c0,1.31,0,1.31,0,1.31c0,1.31,0,1.31,0,1.31C3.77,6.27,3.44,5.78,3.44,5.12C3.44,3.8,4.42,2.82,5.73,2.82L5.73,2.82z M18.49,4.79
	c-13.75,0-13.75,0-13.75,0c0-0.66,0-0.66,0-0.66c13.75,0,13.75,0,13.75,0V4.79L18.49,4.79L18.49,4.79z M18.49,5.45
	c0,0.66,0,0.66,0,0.66c-13.75,0-13.75,0-13.75,0c0-0.66,0-0.66,0-0.66H18.49L18.49,5.45L18.49,5.45z M18.49,6.76
	c0,0.66,0,0.66,0,0.66c-1.96,0-1.96,0-1.96,0c-10.8,0-10.8,0-10.8,0c-0.33,0-0.66-0.16-0.98-0.16c0-0.49,0-0.49,0-0.49H18.49
	L18.49,6.76L18.49,6.76z M19.8,18.26c0,1.31-0.98,2.3-2.29,2.3c-11.78,0-11.78,0-11.78,0c-1.31,0-2.29-0.99-2.29-2.3
	c0-10.35,0-10.35,0-10.35c0.66,0.49,1.47,0.82,2.29,0.82c10.8,0,10.8,0,10.8,0c2.62,0,2.62,0,2.62,0c0.33,0,0.66,0.33,0.66,0.66
	c0,1.31,0,1.31,0,1.31c-5.89,0-5.89,0-5.89,0c-1.8,0-3.27,1.48-3.27,3.29c0,1.81,1.47,3.29,3.27,3.29c5.89,0,5.89,0,5.89,0V18.26
	L19.8,18.26L19.8,18.26z M20.62,15.96c-6.71,0-6.71,0-6.71,0c-1.15,0-1.96-0.82-1.96-1.97c0-1.15,0.82-1.97,1.96-1.97
	c5.89,0,5.89,0,5.89,0c0.33,0,0.82-0.16,0.98-0.49c0.16-0.16,0.16-0.16,0.16-0.33h0.16c0.33,0.49,0.65,1.31,0.65,2.14
	C21.77,14.32,21.44,15.31,20.62,15.96L20.62,15.96z"/>
</svg>
