<svg xmlns="http://www.w3.org/2000/svg"  viewBox="0 0 64 64" width="64px" height="64px"><linearGradient id="Mpe8qr7Op7waZ1KI1n98da" x1="-312.28" x2="-312.28" y1="-201.02" y2="-247.02" gradientTransform="matrix(1 0 0 -1 344.28 -192.02)" gradientUnits="userSpaceOnUse"><stop offset="0" stop-color="#1a6dff"/><stop offset="1" stop-color="#c822ff"/></linearGradient><path fill="url(#Mpe8qr7Op7waZ1KI1n98da)" d="M50,9H14c-2.757,0-5,2.243-5,5v36c0,2.757,2.243,5,5,5h36c2.757,0,5-2.243,5-5V14	C55,11.243,52.757,9,50,9z M53,50c0,1.654-1.346,3-3,3H14c-1.654,0-3-1.346-3-3V14c0-1.654,1.346-3,3-3h36c1.654,0,3,1.346,3,3V50z"/><linearGradient id="Mpe8qr7Op7waZ1KI1n98db" x1="32" x2="32" y1="21.762" y2="45.764" gradientUnits="userSpaceOnUse"><stop offset="0" stop-color="#6dc7ff"/><stop offset="1" stop-color="#e6abff"/></linearGradient><path fill="url(#Mpe8qr7Op7waZ1KI1n98db)" d="M49.81,24.634c0,0.189-0.189,0.367-0.377,0.367h-2.158l-9.649,19.821	C37.531,44.906,37.437,45,37.249,45s-0.283-0.094-0.377-0.178l-4.589-8.947l-4.966,8.947C27.223,44.906,27.129,45,26.94,45	s-0.283-0.094-0.377-0.178L16.82,25.095h-2.252c-0.189,0-0.377-0.178-0.377-0.367v-1.362c0-0.189,0.189-0.367,0.377-0.367h7.627	c0.189,0,0.377,0.178,0.377,0.367v1.362c0,0.189-0.189,0.367-0.377,0.367h-1.446l6.757,14.792l3.562-6.39l-4.505-8.402h-1.498	c-0.189,0-0.377-0.178-0.377-0.367v-1.362c0-0.189,0.189-0.367,0.377-0.367h6.558C31.811,23,32,23.178,32,23.367v1.362	c0,0.189-0.189,0.367-0.377,0.367h-1.31l2.535,5.112l3.09-5.112h-1.467c-0.189,0-0.377-0.178-0.377-0.367v-1.362	c0-0.189,0.189-0.367,0.377-0.367h5.531c0.189,0,0.377,0.178,0.377,0.367v1.362c0,0.189-0.189,0.367-0.377,0.367h-1.446l-4.494,7.49	l3.656,7.302l7.03-14.792h-1.896c-0.189,0-0.377-0.178-0.377-0.367v-1.362c0-0.189,0.189-0.367,0.377-0.367h6.579	c0.189,0,0.377,0.178,0.377,0.367V24.634z"/></svg>