<svg width="60" height="61" viewBox="0 0 60 61" fill="none" xmlns="http://www.w3.org/2000/svg">
<path d="M46.4688 22.0183C46.2832 21.2768 45.9052 20.5973 45.3729 20.0486C44.8407 19.4999 44.1731 19.1014 43.4375 18.8933C40.75 18.2371 30 18.2371 30 18.2371C30 18.2371 19.25 18.2371 16.5625 18.9558C15.827 19.1639 15.1594 19.5624 14.6271 20.1111C14.0949 20.6598 13.7169 21.3393 13.5313 22.0808C13.0394 24.8082 12.7988 27.575 12.8125 30.3464C12.795 33.1387 13.0356 35.9266 13.5313 38.6746C13.7359 39.3931 14.1224 40.0467 14.6534 40.5722C15.1844 41.0977 15.8419 41.4774 16.5625 41.6746C19.25 42.3933 30 42.3933 30 42.3933C30 42.3933 40.75 42.3933 43.4375 41.6746C44.1731 41.4665 44.8407 41.0679 45.3729 40.5192C45.9052 39.9705 46.2832 39.2911 46.4688 38.5496C46.9568 35.8427 47.1974 33.097 47.1875 30.3464C47.2051 27.5542 46.9645 24.7663 46.4688 22.0183V22.0183Z" fill="#6BC909"/>
<path d="M26.4844 35.4558L35.4688 30.3464L26.4844 25.2371V35.4558Z" fill="#09090E"/>
<path d="M12 1.73706H48V-0.262939H12V1.73706ZM59 12.7371V48.7371H61V12.7371H59ZM48 59.7371H12V61.7371H48V59.7371ZM1 48.7371V12.7371H-1V48.7371H1ZM12 59.7371C5.92487 59.7371 1 54.8122 1 48.7371H-1C-1 55.9168 4.8203 61.7371 12 61.7371V59.7371ZM59 48.7371C59 54.8122 54.0751 59.7371 48 59.7371V61.7371C55.1797 61.7371 61 55.9168 61 48.7371H59ZM48 1.73706C54.0751 1.73706 59 6.66193 59 12.7371H61C61 5.55736 55.1797 -0.262939 48 -0.262939V1.73706ZM12 -0.262939C4.8203 -0.262939 -1 5.55736 -1 12.7371H1C1 6.66193 5.92487 1.73706 12 1.73706V-0.262939Z" fill="#6BC909"/>
</svg>
