<svg width="24" height="24" viewBox="0 0 24 24" fill="none" xmlns="http://www.w3.org/2000/svg">
<path d="M12.7276 23.7857H12C11.768 23.7857 11.652 23.6736 11.652 23.4494V21.039H10.6396C9.28981 21.039 8.21417 20.684 7.41271 19.9739C6.61125 19.2452 6.21053 18.2736 6.21053 17.059V16.1902C6.21053 15.9846 6.32653 15.8819 6.55853 15.8819H7.47599C7.68689 15.8819 7.79235 15.9846 7.79235 16.1902V16.9749C7.79235 18.8435 8.81526 19.7777 10.8611 19.7777H13.1389C15.1847 19.7777 16.2077 18.8341 16.2077 16.9469V15.2933C16.2077 14.303 15.9229 13.6116 15.3535 13.2192C14.8051 12.8268 13.972 12.6213 12.8542 12.6026L10.8611 12.5746C9.38472 12.5372 8.23526 12.2382 7.41271 11.6777C6.61125 11.1171 6.21053 10.1268 6.21053 8.70673V6.94097C6.21053 5.72643 6.61125 4.76414 7.41271 4.0541C8.21417 3.32538 9.28981 2.96102 10.6396 2.96102H11.652V0.550621C11.652 0.326397 11.768 0.214286 12 0.214286H12.7276C12.9596 0.214286 13.0756 0.326397 13.0756 0.550621V2.96102H13.3604C14.6891 2.96102 15.7436 3.32538 16.524 4.0541C17.3255 4.76414 17.7262 5.72643 17.7262 6.94097V7.72575C17.7262 7.94997 17.6207 8.06209 17.4098 8.06209H16.4924C16.2604 8.06209 16.1444 7.94997 16.1444 7.72575V7.05308C16.1444 5.18456 15.1215 4.2503 13.0756 4.2503H10.8611C8.81526 4.2503 7.79235 5.20324 7.79235 7.10914V8.73475C7.79235 9.66902 8.05599 10.3323 8.58326 10.7247C9.13163 11.0984 9.96472 11.2946 11.0825 11.3133H13.3604C14.7313 11.3507 15.8069 11.659 16.5873 12.2382C17.3887 12.8175 17.7895 13.8078 17.7895 15.2092V17.059C17.7895 18.2923 17.3887 19.2639 16.5873 19.9739C15.7858 20.684 14.7102 21.039 13.3604 21.039H13.0756V23.4494C13.0756 23.6736 12.9596 23.7857 12.7276 23.7857Z" fill="white"/>
<path fill-rule="evenodd" clip-rule="evenodd" d="M10.8611 12.5746C9.38472 12.5372 8.23526 12.2382 7.41271 11.6777C6.61125 11.1171 6.21053 10.1268 6.21053 8.70673V6.94097C6.21053 5.72643 6.61125 4.76414 7.41271 4.0541C8.21417 3.32538 9.28981 2.96102 10.6396 2.96102H11.652V0.550621C11.652 0.326397 11.768 0.214286 12 0.214286H12.7276C12.9596 0.214286 13.0756 0.326397 13.0756 0.550621V2.96102H13.3604C14.6891 2.96102 15.7436 3.32538 16.524 4.0541C17.3255 4.76414 17.7262 5.72643 17.7262 6.94097V7.72575C17.7262 7.94997 17.6207 8.06209 17.4098 8.06209H16.4924C16.2604 8.06209 16.1444 7.94997 16.1444 7.72575V7.05308C16.1444 5.18456 15.1215 4.2503 13.0756 4.2503H10.8611C8.81526 4.2503 7.79235 5.20324 7.79235 7.10914V8.73475C7.79235 9.66902 8.05599 10.3323 8.58326 10.7247C9.13163 11.0984 9.96472 11.2946 11.0825 11.3133H13.3604C14.7313 11.3507 15.8069 11.659 16.5873 12.2382C17.3887 12.8175 17.7895 13.8078 17.7895 15.2092V17.059C17.7895 18.2923 17.3887 19.2639 16.5873 19.9739C15.7858 20.684 14.7102 21.039 13.3604 21.039H13.0756V23.4494C13.0756 23.6736 12.9596 23.7857 12.7276 23.7857H12C11.768 23.7857 11.652 23.6736 11.652 23.4494V21.039H10.6396C9.28981 21.039 8.21417 20.684 7.41271 19.9739C6.61125 19.2452 6.21053 18.2736 6.21053 17.059V16.1902C6.21053 15.9846 6.32653 15.8819 6.55853 15.8819H7.47599C7.68689 15.8819 7.79235 15.9846 7.79235 16.1902V16.9749C7.79235 18.8435 8.81526 19.7777 10.8611 19.7777H13.1389C15.1847 19.7777 16.2077 18.8341 16.2077 16.9469V15.2933C16.2077 14.303 15.9229 13.6116 15.3535 13.2192C14.8051 12.8268 13.972 12.6213 12.8542 12.6026L10.8611 12.5746ZM12.8509 12.8169C13.9518 12.8353 14.7347 13.0384 15.2324 13.3945L15.2354 13.3967C15.7252 13.7341 15.9971 14.3422 15.9971 15.2933V16.9469C15.9971 17.8518 15.7529 18.4927 15.2991 18.9112C14.8414 19.3335 14.1342 19.5634 13.1389 19.5634H10.8611C9.86534 19.5634 9.15784 19.3356 8.70014 18.9175C8.24677 18.5035 8.00288 17.8698 8.00288 16.9749V16.1902C8.00288 16.0519 7.96694 15.9095 7.85885 15.8042C7.75247 15.7005 7.61166 15.6676 7.47599 15.6676H6.55853C6.41669 15.6676 6.271 15.6983 6.15931 15.7973C6.04203 15.9012 6 16.046 6 16.1902V17.059C6 18.3271 6.42107 19.3596 7.27246 20.1337L7.27449 20.1356C8.12374 20.8879 9.25314 21.2533 10.6396 21.2533H11.4415V23.4494C11.4415 23.5974 11.4803 23.7471 11.594 23.857C11.7057 23.965 11.8542 24 12 24H12.7276C12.8734 24 13.0219 23.965 13.1336 23.857C13.2473 23.7471 13.2862 23.5974 13.2862 23.4494V21.2533H13.3604C14.7469 21.2533 15.8763 20.8879 16.7255 20.1356C17.5796 19.3789 18 18.3446 18 17.059V15.2092C18 13.7689 17.5868 12.6985 16.7102 12.0643C15.8838 11.4513 14.7617 11.1372 13.366 11.0991L11.0843 11.099C9.98555 11.0805 9.20258 10.8873 8.70403 10.5491C8.25301 10.2115 8.00288 9.62795 8.00288 8.73475V7.10914C8.00288 6.19435 8.2475 5.54618 8.70167 5.12308C9.15937 4.69669 9.86624 4.46458 10.8611 4.46458H13.0756C14.0714 4.46458 14.7789 4.69245 15.2366 5.11048C15.69 5.52456 15.9339 6.15821 15.9339 7.05308V7.72575C15.9339 7.87381 15.9727 8.02348 16.0864 8.1334C16.1981 8.24134 16.3466 8.27637 16.4924 8.27637H17.4098C17.5501 8.27637 17.6934 8.2386 17.7992 8.12619C17.9033 8.01553 17.9367 7.86862 17.9367 7.72575V6.94097C17.9367 5.674 17.5163 4.65015 16.6643 3.89431C15.8361 3.12201 14.7267 2.74673 13.3604 2.74673H13.2862V0.550621C13.2862 0.402564 13.2473 0.25289 13.1336 0.142975C13.0219 0.0350339 12.8734 0 12.7276 0H12C11.8542 0 11.7057 0.035034 11.594 0.142975C11.4803 0.25289 11.4415 0.402564 11.4415 0.550621V2.74673H10.6396C9.25236 2.74673 8.12254 3.12187 7.27347 3.89338C6.42081 4.6493 6 5.67347 6 6.94097V8.70673C6 10.1645 6.4126 11.2382 7.29348 11.8543L7.29559 11.8557C8.16384 12.4474 9.35794 12.7509 10.8559 12.7888L12.8509 12.8169C12.851 12.8169 12.8508 12.8169 12.8509 12.8169Z" fill="white"/>
</svg>
