<svg width="16" height="16" viewBox="0 0 16 16" fill="none" xmlns="http://www.w3.org/2000/svg">
<path d="M11.6005 5.66766C11.3446 5.52522 11.0157 5.52522 10.7232 5.66766L8.67624 6.84273L7.28721 7.5905L5.27676 8.76558C5.02089 8.90801 4.69191 8.90801 4.39948 8.76558L2.82768 7.83976C2.5718 7.69733 2.38903 7.41246 2.38903 7.09199V5.31157C2.38903 5.02671 2.53525 4.74184 2.82768 4.5638L4.39948 3.67359C4.65535 3.53116 4.98433 3.53116 5.27676 3.67359L6.84856 4.59941C7.10444 4.74184 7.28721 5.02671 7.28721 5.34718V6.52226L8.67624 5.73887V4.52819C8.67624 4.24332 8.53003 3.95846 8.2376 3.78042L5.31332 2.10682C5.05744 1.96439 4.72846 1.96439 4.43603 2.10682L1.43864 3.81602C1.14621 3.95846 1 4.24332 1 4.52819V7.87537C1 8.16024 1.14621 8.4451 1.43864 8.62315L4.39948 10.2967C4.65535 10.4392 4.98433 10.4392 5.27676 10.2967L7.28721 9.15727L8.67624 8.37389L10.6867 7.23442C10.9426 7.09199 11.2715 7.09199 11.564 7.23442L13.1358 8.12463C13.3916 8.26706 13.5744 8.55193 13.5744 8.8724V10.6528C13.5744 10.9377 13.4282 11.2226 13.1358 11.4006L11.6005 12.2908C11.3446 12.4332 11.0157 12.4332 10.7232 12.2908L9.15144 11.4006C8.89556 11.2582 8.71279 10.9733 8.71279 10.6528V9.51335L7.32376 10.2967V11.4718C7.32376 11.7567 7.46997 12.0415 7.7624 12.2196L10.7232 13.8932C10.9791 14.0356 11.3081 14.0356 11.6005 13.8932L14.5614 12.2196C14.8172 12.0772 15 11.7923 15 11.4718V8.08902C15 7.80415 14.8538 7.51929 14.5614 7.34125L11.6005 5.66766Z" fill="#7A809B"/>
</svg>
